<?xml version="1.0" encoding="utf-8"?>
<!-- Generator: Adobe Illustrator 25.0.1, SVG Export Plug-In . SVG Version: 6.00 Build 0)  -->
<svg version="1.1" id="Layer_1" xmlns="http://www.w3.org/2000/svg" xmlns:xlink="http://www.w3.org/1999/xlink" x="0px" y="0px"
	 viewBox="0 0 250 250" style="enable-background:new 0 0 250 250;" xml:space="preserve">
<style type="text/css">
	.st0{fill:#FFFFFF;}
</style>
<g id="KlNUKd.tif">
	<g>
		<path class="st0" d="M237.5,122.74c0,39.79,0,79.57,0,119.36c-75,0-150,0-225,0c0-78.07,0-156.13,0-234.2c75,0,150,0,225,0
			c0,36.77,0,73.54,0,110.31c-0.36-0.18-0.27-0.52-0.28-0.81c-0.11-2.44-0.02-4.89-0.42-7.32c-0.21-1.29-0.18-2.61-0.42-3.91
			c-0.27-1.47-0.21-2.99-0.58-4.46c-0.19-0.76-0.19-1.57-0.41-2.34c-0.25-0.89-0.33-1.84-0.52-2.75c-0.23-1.05-0.51-2.08-0.77-3.12
			c-0.18-0.73-0.34-1.46-0.52-2.18c-0.18-0.7-0.35-1.41-0.55-2.1c-0.21-0.74-0.45-1.47-0.69-2.2c-0.23-0.71-0.47-1.42-0.72-2.13
			c-0.31-0.91-0.62-1.81-0.94-2.71c-0.33-0.95-0.65-1.9-1.02-2.83c-0.5-1.23-1.04-2.44-1.57-3.66c-0.33-0.77-0.63-1.56-1-2.32
			c-0.76-1.55-1.54-3.09-2.34-4.62c-0.78-1.49-1.55-2.98-2.38-4.44c-0.83-1.46-1.7-2.91-2.61-4.32c-1.09-1.69-2.2-3.37-3.39-4.98
			c-1.45-1.95-2.87-3.92-4.5-5.73c-0.61-0.68-1.1-1.46-1.7-2.14c-1.02-1.16-2.08-2.29-3.14-3.41c-1.22-1.29-2.42-2.62-3.71-3.83
			c-1.94-1.83-3.95-3.59-5.95-5.35c-1.13-0.99-2.29-1.93-3.48-2.84c-1.29-1-2.62-1.97-3.95-2.92c-1.3-0.92-2.6-1.84-3.93-2.71
			c-1.19-0.78-2.42-1.51-3.65-2.23c-1.43-0.84-2.87-1.67-4.33-2.45c-1.55-0.82-3.13-1.59-4.71-2.34c-1.71-0.81-3.43-1.6-5.17-2.35
			c-1.22-0.52-2.49-0.96-3.73-1.43c-1.36-0.51-2.7-1.04-4.07-1.51c-1.4-0.47-2.81-0.9-4.23-1.3c-1.33-0.37-2.68-0.68-4.02-1.01
			c-0.66-0.16-1.32-0.31-1.98-0.46c-1.05-0.25-2.1-0.5-3.15-0.73c-0.3-0.07-0.61-0.05-0.91-0.11c-1.06-0.21-2.1-0.46-3.16-0.64
			c-1.3-0.21-2.6-0.35-3.9-0.52c-0.86-0.11-1.72-0.26-2.58-0.33c-1.15-0.09-2.3-0.12-3.46-0.18c-0.33-0.02-0.66-0.06-0.98-0.1
			c-0.47-0.05-0.93-0.15-1.4-0.15c-4.33,0.02-8.66-0.27-12.99,0.23c-1.58,0.18-3.19,0.12-4.77,0.41c-1.17,0.21-2.38,0.19-3.56,0.44
			c-1.31,0.28-2.64,0.39-3.97,0.57c-0.21,0.03-0.42,0.05-0.63,0.09c-0.96,0.21-1.91,0.44-2.87,0.64c-1.01,0.21-2.02,0.4-3.03,0.61
			c-0.05,0.01-0.09,0.03-0.13,0.05c-0.76,0.21-1.53,0.43-2.29,0.63c-0.79,0.21-1.59,0.4-2.38,0.61c-0.5,0.13-0.99,0.29-1.48,0.44
			c-0.71,0.22-1.42,0.46-2.13,0.69c-0.6,0.19-1.22,0.34-1.81,0.57c-1.64,0.62-3.28,1.25-4.9,1.91c-1.67,0.68-3.33,1.38-4.97,2.12
			c-1.62,0.73-3.24,1.48-4.82,2.3c-2.05,1.07-4.09,2.18-6.08,3.36c-1.87,1.11-3.7,2.3-5.51,3.52c-1.57,1.06-3.1,2.19-4.62,3.32
			c-2.73,2.03-5.36,4.19-7.86,6.5c-2.03,1.86-4.03,3.74-5.9,5.77c-2.2,2.38-4.43,4.73-6.37,7.33c-0.98,1.32-2.05,2.57-3,3.91
			c-1.42,1.98-2.79,4-4.15,6.03c-0.84,1.27-1.64,2.58-2.41,3.9c-0.79,1.36-1.54,2.74-2.28,4.13c-0.43,0.81-0.82,1.64-1.21,2.46
			c-0.5,1.04-1,2.07-1.47,3.12c-0.65,1.46-1.28,2.93-1.91,4.39c-0.32,0.76-0.65,1.51-0.94,2.28c-0.37,0.99-0.71,1.99-1.03,3
			c-0.7,2.19-1.38,4.39-2.05,6.59c-0.19,0.61-0.34,1.22-0.51,1.83c-0.23,0.84-0.46,1.68-0.66,2.52c-0.21,0.89-0.39,1.79-0.57,2.69
			c-0.15,0.74-0.3,1.47-0.43,2.21c-0.26,1.5-0.51,3.01-0.77,4.51c-0.04,0.26-0.07,0.51-0.11,0.77c-0.2,1.49-0.46,2.98-0.59,4.47
			c-0.21,2.42-0.35,4.84-0.47,7.26c-0.18,3.77-0.15,7.53,0.18,11.3c0.11,1.29,0.17,2.59,0.28,3.88c0.07,0.87,0.19,1.73,0.3,2.59
			c0.19,1.45,0.38,2.89,0.58,4.33c0,0.02,0.01,0.05,0.01,0.07c0.23,1.24,0.46,2.49,0.7,3.73c0.17,0.9,0.35,1.8,0.54,2.69
			c0.14,0.67,0.3,1.33,0.48,1.99c0.2,0.77,0.42,1.53,0.63,2.3c0.21,0.79,0.4,1.6,0.64,2.38c0.34,1.15,0.71,2.29,1.07,3.42
			c0.33,1.03,0.65,2.06,1.01,3.08c0.47,1.3,0.98,2.59,1.5,3.87c0.61,1.5,1.23,3,1.89,4.47c0.63,1.41,1.33,2.8,1.99,4.2
			c0.39,0.83,0.74,1.68,1.19,2.47c1.2,2.12,2.47,4.21,3.68,6.33c0.85,1.49,2.04,2.28,3.82,2.03c0.48-0.07,0.91-0.19,1.3-0.47
			c1.58-1.11,1.94-2.96,1.06-4.46c-0.65-1.11-1.35-2.18-1.99-3.29c-0.65-1.13-1.28-2.28-1.89-3.44c-0.48-0.91-0.92-1.83-1.38-2.75
			c-0.54-1.09-1.08-2.17-1.6-3.27c-0.39-0.82-0.76-1.65-1.11-2.49c-0.32-0.75-0.63-1.51-0.92-2.27c-0.35-0.94-0.7-1.88-1.02-2.83
			c-0.43-1.26-0.85-2.52-1.26-3.79c-0.21-0.64-0.37-1.3-0.56-1.95c-0.41-1.44-0.84-2.87-1.21-4.31c-0.31-1.17-0.56-2.36-0.83-3.54
			c-0.05-0.23-0.05-0.47-0.1-0.7c-0.21-0.93-0.47-1.85-0.64-2.79c-0.22-1.22-0.37-2.45-0.55-3.68c-0.11-0.74-0.22-1.48-0.32-2.22
			c-0.04-0.3-0.05-0.61-0.08-0.91c-0.1-0.86-0.26-1.71-0.31-2.58c-0.09-1.62-0.12-3.25-0.18-4.87c-0.01-0.26-0.04-0.51-0.07-0.77
			c-0.05-0.37-0.16-0.74-0.15-1.11c0.05-2.23-0.09-4.45,0.18-6.69c0.25-2.16,0.08-4.36,0.46-6.53c0.2-1.15,0.14-2.33,0.41-3.49
			c0.22-0.95,0.18-1.95,0.44-2.91c0.2-0.76,0.18-1.57,0.41-2.35c0.29-0.98,0.4-2.02,0.58-3.03c0.04-0.23,0.05-0.47,0.1-0.7
			c0.25-1.04,0.52-2.08,0.78-3.12c0.03-0.14,0.06-0.27,0.1-0.41c0.24-0.83,0.49-1.65,0.73-2.48c0.18-0.63,0.34-1.26,0.54-1.89
			c0.24-0.8,0.51-1.6,0.77-2.4c0.35-1.07,0.68-2.14,1.06-3.2c0.36-1.01,0.78-2,1.18-2.99c0.18-0.45,0.37-0.91,0.57-1.36
			c0.49-1.09,0.98-2.17,1.49-3.25c0.64-1.35,1.29-2.7,1.96-4.04c0.44-0.88,0.93-1.73,1.41-2.59c0.78-1.38,1.53-2.79,2.36-4.14
			c0.9-1.47,1.86-2.92,2.84-4.34c1.21-1.75,2.42-3.49,3.72-5.17c1.55-2,3.11-3.98,4.87-5.8c1.76-1.81,3.37-3.76,5.22-5.49
			c2.09-1.95,4.16-3.93,6.39-5.71c1.52-1.21,3.03-2.41,4.57-3.59c0.68-0.53,1.41-1,2.13-1.48c1.68-1.11,3.36-2.22,5.05-3.32
			c0.88-0.57,1.78-1.13,2.69-1.65c1.48-0.84,2.98-1.66,4.49-2.47c0.93-0.49,1.88-0.95,2.83-1.4c1.14-0.54,2.29-1.07,3.45-1.56
			c1.29-0.54,2.6-1.04,3.91-1.55c0.52-0.2,1.06-0.37,1.59-0.57c0.99-0.36,1.96-0.76,2.96-1.09c1.13-0.37,2.29-0.69,3.43-1.03
			c0.52-0.15,1.03-0.31,1.55-0.45c1.42-0.38,2.84-0.78,4.27-1.13c1.36-0.33,2.74-0.6,4.12-0.89c0.28-0.06,0.56-0.07,0.84-0.12
			c1.06-0.21,2.1-0.46,3.16-0.62c1.39-0.21,2.79-0.35,4.19-0.52c0.88-0.11,1.76-0.27,2.65-0.32c1.67-0.09,3.34-0.12,5.01-0.18
			c0.68-0.03,1.36-0.1,2.04-0.14c0.4-0.03,0.8-0.07,1.2-0.08c1.37-0.06,2.72,0.13,4.09,0.2c2.35,0.12,4.7,0.04,7.03,0.43
			c1.22,0.2,2.48,0.15,3.7,0.42c1.19,0.26,2.41,0.36,3.62,0.52c0.37,0.05,0.75,0.06,1.12,0.14c1.19,0.24,2.38,0.51,3.57,0.76
			c0.21,0.04,0.42,0.04,0.63,0.09c0.88,0.23,1.76,0.47,2.64,0.7c0.77,0.2,1.55,0.36,2.32,0.56c0.54,0.14,1.08,0.29,1.62,0.46
			c1.2,0.38,2.41,0.77,3.61,1.16c0.93,0.31,1.87,0.61,2.79,0.95c1.1,0.4,2.19,0.82,3.27,1.26c1.2,0.48,2.39,0.95,3.57,1.47
			c1.11,0.49,2.2,1.03,3.29,1.57c0.94,0.46,1.9,0.9,2.82,1.41c1.62,0.9,3.22,1.82,4.81,2.76c1.53,0.91,3.06,1.83,4.54,2.82
			c1.81,1.21,3.6,2.46,5.33,3.79c2.06,1.59,4.07,3.24,6.06,4.93c2.38,2.02,4.58,4.24,6.72,6.52c1.32,1.4,2.64,2.8,3.89,4.26
			c1.43,1.68,2.79,3.42,4.16,5.15c0.64,0.81,1.25,1.64,1.83,2.5c1.05,1.56,2.09,3.13,3.09,4.72c0.94,1.49,1.85,3,2.72,4.53
			c0.77,1.35,1.47,2.73,2.18,4.1c0.55,1.06,1.07,2.14,1.58,3.23c0.5,1.06,0.99,2.13,1.45,3.21c0.52,1.21,1.03,2.42,1.48,3.65
			c0.42,1.12,0.77,2.27,1.15,3.41c0.41,1.25,0.81,2.49,1.2,3.74c0.2,0.63,0.37,1.26,0.55,1.9c0.22,0.74,0.45,1.48,0.64,2.23
			c0.22,0.87,0.4,1.74,0.59,2.61c0.36,1.68,0.75,3.35,1.08,5.03c0.23,1.2,0.36,2.42,0.54,3.63c0.04,0.28,0.06,0.56,0.1,0.84
			c0.22,1.73,0.5,3.45,0.65,5.18c0.17,1.97,0.25,3.95,0.3,5.93c0.06,2.35,0.09,4.71-0.1,7.06c-0.17,2.16-0.14,4.32-0.43,6.48
			c-0.19,1.44-0.31,2.9-0.53,4.34c-0.07,0.44-0.07,0.89-0.15,1.33c-0.23,1.25-0.48,2.49-0.71,3.73c-0.18,0.94-0.35,1.89-0.54,2.83
			c-0.13,0.64-0.27,1.29-0.44,1.92c-0.36,1.36-0.74,2.72-1.12,4.07c-0.14,0.5-0.3,0.99-0.45,1.48c-0.33,1.08-0.63,2.16-0.99,3.23
			c-0.34,1.02-0.8,2.01-1.1,3.04c-0.52,1.84-1.32,3.57-2.06,5.32c-0.7,1.67-1.49,3.3-2.32,4.91c-1.06,2.07-2.22,4.08-3.3,6.14
			c-0.38,0.72-0.86,1.38-1.15,2.17c-0.57,1.57,0.34,3.62,2.05,4.07c1.63,0.43,2.89,0.28,3.96-1.21c0.6-0.83,1.1-1.74,1.62-2.62
			c0.33-0.56,0.64-1.14,0.93-1.73c0.51-1,1.01-2,1.51-3c0.62-1.25,1.28-2.49,1.86-3.77c0.68-1.49,1.3-3,1.93-4.51
			c0.51-1.23,1.02-2.46,1.48-3.7c0.38-1.03,0.69-2.08,1.03-3.13c0.42-1.31,0.83-2.62,1.24-3.94c0.17-0.56,0.32-1.12,0.49-1.69
			c0.25-0.87,0.52-1.74,0.75-2.62c0.2-0.77,0.33-1.55,0.5-2.33c0.25-1.12,0.51-2.23,0.76-3.35c0.06-0.25,0.05-0.52,0.1-0.77
			c0.21-1.03,0.49-2.04,0.63-3.08c0.25-1.83,0.42-3.68,0.63-5.52c0.01-0.09,0.03-0.19,0.04-0.28c0.08-0.96,0.19-1.91,0.3-2.86
			c0.18-1.44,0.14-2.91,0.19-4.37c0.02-0.61,0.01-1.23,0.06-1.84C237.25,123.19,237.41,122.97,237.5,122.74z M170.6,118.51
			c-0.02-0.18-0.07-0.34-0.35-0.22c0.12,0.07,0.25,0.13,0.37,0.2c0.1,0.21,0.17,0.44,0.31,0.61c1.11,1.37,2.21,2.74,3.35,4.07
			c1.74,2.04,3.5,4.05,5.26,6.06c1.08,1.24,2.18,2.46,3.27,3.7c0.31,0.35,0.23,0.53-0.22,0.59c-1.16,0.15-2.33,0.2-3.5,0.36
			c-1.53,0.2-3.09,0.18-4.63,0.42c-1.5,0.24-3.04,0.19-4.55,0.43c-1.38,0.22-2.81,0.16-4.2,0.43c-0.75,0.15-1.51,0.21-2.26,0.42
			c-1.43,0.38-2.71,1.01-3.91,1.86c-1.95,1.38-3.06,3.3-3.4,5.62c-0.17,1.13-0.1,2.31,0.01,3.45c0.16,1.65,0.69,3.22,1.35,4.72
			c0.82,1.87,1.77,3.68,2.67,5.51c0.46,0.93,0.95,1.83,1.41,2.76c0.69,1.39,1.36,2.78,2.03,4.18c0.8,1.67,1.62,3.33,2.4,5.01
			c0.4,0.85,0.75,1.72,1.08,2.6c0.35,0.94,0.7,1.89,0.97,2.86c0.26,0.97,0.39,1.98,0.63,2.96c0.3,1.22,0.29,2.4-0.06,3.62
			c-0.27,0.93-0.77,1.65-1.52,2.23c-1.34,1.02-2.94,1.36-4.53,1.56c-1.9,0.24-3.77-0.02-5.61-0.66c-1.68-0.59-3.22-1.43-4.67-2.42
			c-1.51-1.03-2.83-2.29-4.09-3.61c-0.58-0.61-1.15-1.23-1.66-1.9c-0.77-1-1.52-2.02-2.24-3.05c-0.56-0.81-1.09-1.63-1.56-2.49
			c-0.65-1.19-1.26-2.4-1.83-3.63c-0.38-0.82-0.68-1.69-0.99-2.54c-0.23-0.63-0.46-1.27-0.64-1.92c-0.24-0.9-0.41-1.81-0.62-2.75
			c0,1.31,0,2.58,0,3.85c0,0.14,0.01,0.28,0.04,0.42c0.21,1.13,0.4,2.27,0.66,3.39c0.29,1.23,0.58,2.47,1.01,3.66
			c0.57,1.54,1.24,3.04,1.93,4.53c1.09,2.33,2.52,4.46,4.15,6.43c1.57,1.9,3.27,3.69,5.36,5.04c1.06,0.68,2.18,1.27,3.31,1.84
			c0.85,0.44,1.77,0.71,2.7,0.98c1.14,0.33,2.3,0.49,3.46,0.58c1.25,0.1,2.51,0.06,3.78-0.18c1.27-0.24,2.53-0.48,3.72-0.97
			c0.73-0.3,1.45-0.67,2.09-1.12c1.4-1,2.59-2.18,3.32-3.81c0.46-1.04,0.84-2.08,1.02-3.18c0.29-1.77,0.22-3.57,0.03-5.35
			c-0.05-0.51-0.19-1-0.3-1.51c-0.2-0.94-0.37-1.88-0.61-2.81c-0.23-0.88-0.52-1.74-0.82-2.6c-0.33-0.95-0.65-1.91-1.04-2.83
			c-0.46-1.07-0.99-2.11-1.5-3.16c-0.57-1.18-1.11-2.37-1.7-3.54c-1.03-2.02-2.09-4.03-3.13-6.04c-0.88-1.7-1.85-3.34-2.6-5.11
			c-0.56-1.33-0.88-2.66-0.79-4.1c0.03-0.47,0.18-0.84,0.52-1.18c0.81-0.81,1.87-1.15,2.91-1.5c0.72-0.24,1.51-0.31,2.27-0.43
			c1.18-0.19,2.36-0.36,3.54-0.54c0.23-0.03,0.47-0.04,0.7-0.09c1.03-0.21,2.06-0.45,3.09-0.65c1.52-0.29,3.04-0.57,4.56-0.83
			c1.18-0.21,2.36-0.39,3.54-0.59c0.16-0.03,0.32-0.06,0.48-0.09c0.96-0.21,1.91-0.45,2.88-0.61c0.44-0.07,0.82-0.2,1.16-0.46
			c1.3-0.99,1.32-2.82,0.2-3.81c-1.59-1.41-3.21-2.79-4.83-4.17c-1.03-0.88-2.07-1.75-3.1-2.63c-0.45-0.38-0.88-0.77-1.34-1.14
			c-1.31-1.05-2.64-2.1-3.96-3.14c-0.44-0.35-0.9-0.68-1.33-1.03c-0.98-0.79-1.96-1.59-2.95-2.37
			C170.99,118.57,170.78,118.56,170.6,118.51z M98.84,157.21c0-0.17,0.12-0.4-0.22-0.39C98.69,156.96,98.76,157.08,98.84,157.21
			c0.45,0.33,0.89,0.68,1.36,0.98c1.56,1,3.19,1.86,5.01,2.32c1.44,0.36,2.89,0.6,4.37,0.63c0.53,0.01,1.06-0.19,1.6-0.21
			c1.35-0.06,2.61-0.48,3.89-0.86c1.52-0.45,2.92-1.16,4.29-1.91c2.26-1.24,4.31-2.8,6.23-4.52c1.5-1.34,2.97-2.72,4.44-4.09
			c1.94-1.8,3.95-3.51,5.99-5.2c1.55-1.29,3.11-2.55,4.78-3.68c1.36-0.92,2.72-1.82,4.17-2.59c2.15-1.15,4.31-2.22,6.75-2.71
			c1.19-0.24,2.4-0.39,3.6-0.59c1.23-0.21,2.44-0.4,3.58-0.94c0.99-0.47,1.87-1.11,2.5-2.01c0.78-1.11,1.51-2.26,2.19-3.42
			c0.51-0.86,0.97-1.76,1.36-2.68c0.39-0.9,0.68-1.84,0.99-2.77c0.28-0.86,0.52-1.74,0.75-2.62c0.07-0.27,0-0.59,0.11-0.84
			c0.33-0.74,0.3-1.53,0.33-2.29c0.11-2.44,0.09-4.89-0.46-7.29c-0.22-0.95-0.48-1.9-0.79-2.83c-0.37-1.08-0.8-2.14-1.22-3.2
			c-0.81-2.06-2.04-3.89-3.25-5.72c-1.08-1.65-2.48-3.05-3.87-4.44c-0.84-0.85-1.81-1.56-2.72-2.34c-2.34-2-4.92-3.64-7.66-5.05
			c-2.3-1.18-4.65-2.21-7.13-2.93c-0.52-0.15-1.03-0.32-1.54-0.47c-0.97-0.26-1.94-0.51-2.92-0.76c-0.16-0.04-0.33-0.05-0.49-0.08
			c-1.12-0.21-2.24-0.46-3.37-0.64c-0.81-0.12-1.66-0.07-2.46-0.24c-0.61-0.13-1.2-0.19-1.81-0.2c-0.61-0.01-1.23-0.02-1.84-0.03
			c-2.68-0.06-5.36,0.05-8.02,0.42c-0.28,0.04-0.57,0.02-0.84,0.08c-1.22,0.23-2.43,0.46-3.65,0.71c-0.85,0.18-1.7,0.37-2.53,0.59
			c-0.81,0.21-1.62,0.46-2.42,0.71c-1.01,0.31-2.02,0.61-3,0.98c-1.2,0.46-2.39,0.96-3.56,1.49c-1.41,0.64-2.81,1.28-4.18,2
			c-1.59,0.85-3.15,1.75-4.69,2.69c-1.52,0.93-3.01,1.91-4.46,2.93c-1.15,0.81-2.24,1.7-3.34,2.58c-2.45,1.97-4.78,4.08-7,6.31
			c-0.32,0.33-0.67,0.63-1.04,0.98c-0.53-0.85-1.04-1.6-1.49-2.39c-0.9-1.57-2.02-2.97-3.14-4.38c-0.99-1.24-2-2.47-3.01-3.7
			c-1.02-1.25-1.92-2.58-2.76-3.96c-0.57-0.95-1.07-1.94-1.37-2.99c-0.28-0.99-0.4-2.02-0.58-3.03c-0.1-0.57-0.22-1.15-0.25-1.73
			c-0.04-0.82-0.06-1.62,0.13-2.45c0.2-0.86,0.22-1.75,0.52-2.61c0.37-1.04,0.84-2.03,1.54-2.88c1.55-1.88,3.51-3.14,5.83-3.86
			c0.51-0.16,1.02-0.34,1.54-0.47c0.9-0.23,1.81-0.56,2.73-0.61c2.14-0.13,4.28-0.14,6.43-0.16c0.87-0.01,1.75,0.05,2.6,0.19
			c1.18,0.19,2.34,0.48,3.5,0.75c0.66,0.15,1.33,0.3,1.97,0.52c1.28,0.46,2.54,0.95,3.72,1.63c1,0.57,1.9,1.24,2.58,2.22
			c0.69,1.01,1.65,1.67,2.95,1.64c0.45-0.01,0.9-0.01,1.34-0.05c0.23-0.02,0.47-0.08,0.67-0.19c1.08-0.54,1.91-1.28,2.26-2.52
			c0.24-0.87,0.32-1.68-0.02-2.53c-0.19-0.47-0.36-0.96-0.53-1.45c-0.33-0.95-0.64-1.9-0.98-2.85c-0.34-0.95-0.66-1.9-0.82-2.89
			c-0.02-0.09-0.03-0.18-0.05-0.28c-0.22-1-0.55-2-0.62-3.01c-0.14-1.9-0.14-3.81-0.17-5.72c-0.02-1.37,0.25-2.72,0.65-4.01
			c0.43-1.43,1.04-2.8,1.93-4.03c1.07-1.49,2.39-2.67,4-3.53c0.77-0.41,1.56-0.74,2.4-0.98c1.15-0.33,2.31-0.73,3.51-0.59
			c0.96,0.11,1.94,0.28,2.87,0.65c1.33,0.54,2.58,1.22,3.71,2.1c1.84,1.43,3.38,3.12,4.74,5c0.63,0.87,1.26,1.75,1.82,2.67
			c0.66,1.08,1.31,2.18,1.86,3.31c0.66,1.35,1.26,2.73,1.8,4.13c0.42,1.09,0.72,2.23,1.05,3.35c0.4,1.33,0.7,2.68,0.82,4.07
			c0.06,0.68,0.15,1.36,0.28,2.03c0.33,1.77,2.59,2.18,3.73,1.44c0.5-0.33,0.8-0.84,1.17-1.29c1.13-1.4,2.21-2.84,3.61-4
			c0.88-0.73,1.69-1.56,2.59-2.26c1.49-1.15,3.11-2.08,4.93-2.65c1.1-0.35,2.21-0.6,3.36-0.66c0.65-0.04,1.25,0.18,1.88,0.25
			c1.49,0.18,2.78,0.84,4.03,1.58c1.99,1.19,3.51,2.91,4.79,4.8c1.64,2.43,2.86,5.07,3.6,7.91c0.16,0.61,0.33,1.22,0.46,1.84
			c0.24,1.12,0.53,2.25,0.64,3.38c0.15,1.4,0.17,2.82,0.19,4.23c0.04,2.9-0.17,5.77-0.86,8.61c-0.36,1.49-0.76,2.96-1.29,4.39
			c-0.05,0.14-0.06,0.3-0.09,0.45c0.61-1.09,1.1-2.21,1.55-3.35c0.22-0.54,0.36-1.11,0.53-1.67c0.25-0.83,0.5-1.65,0.73-2.48
			c0.06-0.22,0.02-0.49,0.11-0.69c0.43-1.01,0.42-2.11,0.6-3.16c0.22-1.31,0.21-2.67,0.21-4.02c0-1.79-0.08-3.58-0.16-5.37
			c-0.03-0.6-0.18-1.2-0.29-1.79c-0.19-1.03-0.4-2.07-0.6-3.1c0-0.02-0.02-0.04-0.02-0.07c-0.36-1.03-0.7-2.08-1.09-3.1
			c-0.31-0.81-0.59-1.64-1.03-2.37c-0.88-1.48-1.7-3.01-2.87-4.31c-1.05-1.16-2.07-2.36-3.41-3.2c-0.87-0.55-1.76-1.08-2.69-1.51
			c-1.28-0.58-2.62-1.01-4.06-1.04c-0.37-0.01-0.75-0.1-1.12-0.12c-0.32-0.02-0.64-0.02-0.96,0c-0.21,0.01-0.42,0.1-0.63,0.1
			c-1.45,0.01-2.82,0.38-4.19,0.83c-1.49,0.48-2.86,1.19-4.18,1.98c-1.44,0.87-2.81,1.88-4.03,3.05c-0.19,0.18-0.43,0.32-0.66,0.5
			c-0.1-0.16-0.17-0.23-0.19-0.32c-0.18-0.75-0.35-1.5-0.52-2.25c-0.07-0.32-0.1-0.65-0.21-0.96c-0.35-1.04-0.69-2.08-1.08-3.1
			c-0.46-1.2-0.89-2.42-1.46-3.57c-0.74-1.51-1.55-2.99-2.42-4.42c-0.84-1.37-1.73-2.72-2.74-3.97c-0.96-1.2-2.07-2.29-3.15-3.39
			c-0.97-0.99-2.01-1.91-3.21-2.59c-1.2-0.68-2.45-1.29-3.73-1.79c-1.06-0.41-2.2-0.69-3.32-0.86c-2.21-0.34-4.41-0.07-6.58,0.42
			c-0.52,0.12-1.04,0.27-1.54,0.47c-0.87,0.34-1.73,0.7-2.58,1.09c-1.06,0.49-2.09,1.04-3.03,1.76c-1.41,1.08-2.6,2.37-3.66,3.79
			c-1.51,2.02-2.58,4.25-3.25,6.67c-0.18,0.66-0.38,1.31-0.49,1.98c-0.24,1.44-0.53,2.87-0.6,4.32c-0.11,2.09-0.1,4.18,0.23,6.27
			c0.19,1.18,0.02,1.13-1.18,0.87c-0.02,0-0.04-0.02-0.07-0.02c-0.85-0.24-1.7-0.52-2.56-0.72c-0.91-0.21-1.86-0.28-2.76-0.53
			c-1.08-0.3-2.18-0.35-3.28-0.39c-0.26-0.01-0.52-0.05-0.77-0.08c-0.42-0.05-0.83-0.17-1.25-0.17c-1.62,0.03-3.24-0.16-4.85,0.21
			c-0.75,0.17-1.55,0.11-2.32,0.2c-0.44,0.05-0.87,0.19-1.3,0.28c-0.94,0.2-1.91,0.31-2.81,0.61c-1.36,0.44-2.69,0.95-4,1.52
			c-1.61,0.71-3.11,1.63-4.46,2.77c-2.15,1.81-3.84,3.97-4.99,6.55c-0.68,1.51-1.19,3.08-1.42,4.7c-0.24,1.69-0.48,3.4-0.31,5.13
			c0.18,1.83,0.33,3.65,0.71,5.45c0.14,0.67,0.3,1.33,0.48,1.99c0.11,0.41,0.24,0.81,0.4,1.2c0.6,1.46,1.31,2.87,2.18,4.17
			c1.17,1.76,2.39,3.49,3.67,5.16c1.98,2.57,4.18,4.96,5.81,7.79c0.9,1.56,1.59,3.19,1.52,5.05c-0.03,0.78,0.05,1.54,0.34,2.28
			c0.69,1.76,2.27,2.68,3.95,2.83c0.51,0.05,0.97-0.12,1.44-0.26c0.79-0.23,1.46-0.64,1.99-1.26c0.32-0.37,0.58-0.79,0.9-1.16
			c1.16-1.37,2.28-2.79,3.52-4.09c1.7-1.8,3.46-3.55,5.26-5.26c1.45-1.39,3-2.68,4.63-3.86c1.42-1.02,2.77-2.16,4.24-3.11
			c2.02-1.3,4.06-2.58,6.21-3.68c1.61-0.82,3.26-1.54,4.95-2.17c1.27-0.47,2.57-0.88,3.84-1.35c1.52-0.56,3.09-0.93,4.68-1.23
			c0.14-0.03,0.28-0.03,0.42-0.06c1.1-0.21,2.2-0.48,3.31-0.63c0.93-0.13,1.88-0.12,2.82-0.18c0.68-0.04,1.36-0.12,2.04-0.15
			c0.75-0.03,1.5-0.03,2.25,0c0.47,0.01,0.94,0.14,1.41,0.14c1.68,0,3.32,0.25,4.97,0.52c0.3,0.05,0.61,0.06,0.91,0.13
			c1,0.24,2,0.5,2.99,0.77c0.63,0.17,1.27,0.34,1.89,0.55c0.93,0.33,1.85,0.68,2.75,1.05c1.23,0.51,2.47,1,3.66,1.6
			c1.87,0.94,3.58,2.14,5.21,3.44c1.93,1.54,3.69,3.28,5.22,5.22c1.33,1.68,2.45,3.51,3.33,5.46c0.37,0.81,0.68,1.65,0.92,2.51
			c0.26,0.95,0.38,1.94,0.62,2.89c0.4,1.63,0.34,3.3,0.16,4.92c-0.18,1.55-0.52,3.09-1.07,4.59c-0.68,1.87-1.59,3.6-2.59,5.3
			c-0.54,0.92-1.37,1.37-2.32,1.55c-1.36,0.26-2.73,0.45-4.05,0.87c-1.07,0.34-2.17,0.62-3.19,1.06c-1.33,0.58-2.63,1.23-3.88,1.97
			c-1.53,0.9-3.05,1.84-4.48,2.9c-2.81,2.09-5.38,4.47-7.86,6.94c-2.22,2.2-4.35,4.49-6.48,6.77c-1.7,1.82-3.41,3.64-5.43,5.11
			c-1.11,0.81-2.27,1.57-3.45,2.28c-1.1,0.66-2.28,1.19-3.51,1.58c-0.69,0.22-1.4,0.47-2.11,0.52c-1.43,0.11-2.87,0.12-4.3,0.13
			c-0.54,0-1.08-0.08-1.61-0.21c-0.65-0.16-1.29-0.41-1.93-0.63c-1.12-0.37-2.16-0.89-3.13-1.56
			C99.41,157.23,99.16,157.1,98.84,157.21z M150.88,215.41c0.14,0.56,0.26,1.13,0.43,1.69c0.15,0.5,0.33,0.98,0.51,1.46
			c0.48,1.3,0.96,2.59,1.45,3.89c0.52,1.36,1.04,2.72,1.56,4.08c0.39,1.01,0.77,2.02,1.15,3.02c0.3,0.79,0.6,1.58,0.9,2.37
			c0.3,0.79,0.55,1.6,0.91,2.36c0.56,1.16,1.56,1.78,2.82,1.95c0.27,0.04,0.57-0.01,0.83-0.08c0.74-0.22,1.47-0.47,2.2-0.71
			c0.69-0.23,1.38-0.44,2.06-0.69c0.9-0.33,1.78-0.71,2.67-1.05c0.92-0.35,1.85-0.65,2.77-1c1.07-0.4,2.15-0.81,3.2-1.25
			c0.8-0.33,1.61-0.68,2.02-1.53c0.2-0.42,0.36-0.86,0.5-1.3c0.05-0.15,0.03-0.34-0.02-0.49c-0.2-0.5-0.39-1-0.65-1.47
			c-0.63-1.13-2.07-1.48-3.2-1.16c-0.7,0.2-1.37,0.47-2.06,0.72c-0.53,0.19-1.05,0.39-1.58,0.6c-0.89,0.34-1.79,0.69-2.68,1.03
			c-0.96,0.36-1.94,0.69-2.89,1.09c-0.35,0.15-0.53,0.1-0.67-0.22c-0.16-0.39-0.3-0.78-0.45-1.17c-0.22-0.59-0.47-1.17-0.66-1.77
			c-0.17-0.52-0.16-0.58,0.35-0.83c0.48-0.24,0.99-0.41,1.49-0.6c0.63-0.24,1.27-0.47,1.91-0.7c0.9-0.34,1.79-0.67,2.69-1.03
			c0.72-0.28,1.45-0.54,2.13-0.89c0.98-0.52,1.51-1.38,1.48-2.51c-0.01-0.31-0.18-0.62-0.25-0.94c-0.29-1.23-1.91-2.2-3.22-1.86
			c-0.86,0.22-1.7,0.54-2.53,0.85c-0.9,0.33-1.78,0.72-2.67,1.07c-1.02,0.4-2.06,0.77-3.08,1.16c-0.42,0.16-0.5,0.18-0.7-0.27
			c-0.27-0.57-0.49-1.16-0.68-1.76c-0.27-0.83-0.15-1.02,0.67-1.3c0.04-0.02,0.09-0.02,0.14-0.03c0.53-0.19,1.06-0.37,1.59-0.57
			c1.4-0.53,2.79-1.08,4.18-1.62c0.74-0.29,1.49-0.55,2.22-0.86c0.83-0.35,1.5-0.91,1.79-1.78c0.68-2.04-0.96-4.19-3.06-3.93
			c-0.69,0.09-1.38,0.3-2.03,0.55c-1.62,0.61-3.21,1.29-4.83,1.9c-1.66,0.63-3.34,1.22-5.01,1.84c-0.63,0.24-1.28,0.46-1.87,0.79
			C151.63,213.11,150.95,214.05,150.88,215.41z M138.44,241.14c1.02-0.05,1.9-0.06,2.76-0.15c1.1-0.11,2.15-0.41,3.2-0.76
			c1.11-0.37,2.08-0.94,2.95-1.69c0.83-0.71,1.45-1.55,1.96-2.53c0.65-1.24,0.92-2.55,1-3.9c0.06-0.97,0.16-1.98-0.22-2.93
			c-0.05-0.13-0.02-0.28-0.04-0.42c-0.04-0.42-0.05-0.85-0.11-1.26c-0.09-0.65-0.22-1.29-0.3-1.93c-0.18-1.46-0.34-2.93-0.51-4.4
			c-0.06-0.56-0.09-1.13-0.16-1.69c-0.1-0.74-0.27-1.48-0.32-2.22c-0.05-0.69-0.33-1.28-0.71-1.81c-0.72-0.98-1.73-1.35-2.94-1.32
			c-2.45,0.05-3.51,2.15-3.31,4.1c0.14,1.4,0.43,2.78,0.62,4.18c0.2,1.56,0.36,3.13,0.54,4.69c0.04,0.37,0.06,0.75,0.13,1.12
			c0.3,1.46,0.43,2.93,0.21,4.42c-0.1,0.69-0.41,1.27-0.98,1.66c-1.37,0.93-2.9,1.04-4.46,0.7c-0.36-0.08-0.74-0.35-0.98-0.65
			c-0.57-0.67-0.84-1.52-1-2.36c-0.23-1.2-0.36-2.41-0.52-3.62c-0.08-0.63-0.1-1.25-0.29-1.87c-0.14-0.44-0.07-0.93-0.13-1.4
			c-0.1-0.81-0.23-1.62-0.34-2.43c-0.04-0.33-0.05-0.66-0.09-0.98c-0.11-0.88-0.18-1.77-0.37-2.64c-0.23-1.04-0.66-1.99-1.65-2.58
			c-1.18-0.71-2.72-0.67-3.85,0.12c-0.97,0.67-1.36,1.64-1.48,2.76c-0.08,0.72,0.16,1.39,0.26,2.09c0.21,1.56,0.34,3.13,0.54,4.69
			c0.22,1.75,0.55,3.49,0.72,5.24c0.17,1.7,0.58,3.31,1.28,4.87c1.18,2.65,3.22,4.15,5.99,4.7
			C136.74,241.13,137.67,241.09,138.44,241.14z M186.13,223.65c0-0.02,0-0.04,0.01-0.07c0.14,0,0.28,0.01,0.42,0
			c0.77-0.08,1.57-0.07,2.3-0.28c0.91-0.26,1.81-0.66,2.65-1.11c0.9-0.48,1.75-1.08,2.59-1.66c1.01-0.7,1.77-1.65,2.44-2.67
			c0.67-1.01,1.16-2.1,1.33-3.28c0.15-1.04,0.13-2.11,0.12-3.17c-0.01-1.35-0.48-2.57-1.3-3.63c-0.35-0.46-0.79-0.82-1.39-0.88
			c-0.58-0.06-1.18-0.13-1.76-0.08c-1.75,0.17-2.82,2.04-2.44,3.55c0.13,0.52,0.23,1.06,0.28,1.6c0.1,1.09,0.11,2.17-0.57,3.12
			c-0.42,0.58-0.98,0.99-1.53,1.43c-1.17,0.94-3.61,1.05-5.02-0.02c-1.45-1.09-2.53-2.48-3.41-4.04c-0.45-0.79-0.78-1.63-1.03-2.52
			c-0.38-1.34-0.28-2.57,0.45-3.76c0.52-0.85,1.26-1.47,2.11-1.91c0.54-0.28,1.22-0.47,1.82-0.44c0.65,0.03,1.3,0.34,1.93,0.59
			c0.59,0.23,1.13,0.58,1.71,0.82c0.79,0.32,1.64,0.37,2.41,0.02c0.91-0.41,1.58-1.04,1.91-2.1c0.32-1.03,0.08-1.87-0.43-2.65
			c-1.2-1.84-3.11-2.57-5.16-2.9c-1.42-0.23-2.84-0.14-4.26,0.23c-1.01,0.26-2,0.57-2.88,1.08c-2.45,1.41-4.48,3.22-5.56,5.95
			c-0.59,1.48-0.99,2.99-0.99,4.58c0,0.7,0.2,1.39,0.25,2.09c0.09,1.34,0.61,2.58,1.16,3.75c1.12,2.36,2.68,4.4,4.84,5.95
			c1.35,0.97,2.81,1.71,4.4,2.13C184.37,223.58,185.26,223.56,186.13,223.65z M94.12,237.68c2.32,0.02,4.21-0.49,5.95-1.67
			c1.55-1.04,2.75-2.34,3.39-4.08c0.43-1.18,0.22-2.3-0.65-3.27c-0.46-0.52-1.05-0.76-1.68-0.97c-0.51-0.16-0.99-0.16-1.51,0.01
			c-0.85,0.29-1.44,0.88-1.95,1.56c-0.82,1.11-1.81,1.97-3.19,2.26c-0.34,0.07-0.72,0.14-1.04,0.05c-0.72-0.18-1.45-0.4-2.12-0.7
			c-0.85-0.38-1.45-1.06-1.89-1.89c-0.36-0.69-0.44-1.43-0.46-2.18c-0.04-1.5,0.33-2.91,0.82-4.32c0.4-1.17,0.98-2.22,1.78-3.15
			c0.73-0.85,1.62-1.43,2.78-1.63c0.73-0.13,1.4-0.02,2.08,0.13c1.1,0.24,1.97,0.83,2.56,1.82c0.54,0.91,0.75,1.91,0.93,2.93
			c0.27,1.55,1.27,2.19,2.44,2.52c1.75,0.5,3.94-1.09,3.87-2.95c-0.01-0.38,0.01-0.75,0.02-1.13c0.02-1.46-0.51-2.73-1.24-3.96
			c-0.66-1.1-1.55-1.99-2.5-2.83c-0.74-0.66-1.64-1.05-2.51-1.52c-0.94-0.51-1.95-0.85-2.98-0.99c-1.25-0.17-2.53-0.12-3.8-0.14
			c-1.4-0.02-2.7,0.46-3.9,1.07c-2.16,1.1-3.78,2.82-4.99,4.92c-0.59,1.02-1.05,2.1-1.4,3.22c-0.31,0.99-0.63,1.97-0.69,3.01
			c-0.02,0.45-0.1,0.89-0.08,1.34c0.06,1.2,0.06,2.41,0.27,3.58c0.19,1.05,0.59,2.07,1.1,3.03c0.68,1.26,1.55,2.38,2.72,3.18
			c1.21,0.84,2.49,1.54,3.93,1.98C91.56,237.35,92.92,237.73,94.12,237.68z M71.85,201.89c0.11-0.89-0.18-1.82-0.84-2.66
			c-0.76-0.97-1.76-1.55-2.94-1.75c-1.12-0.19-2.2,0.06-3.16,0.69c-1.18,0.77-2.36,1.53-3.53,2.3c-2.1,1.37-4.19,2.75-6.28,4.13
			c-0.9,0.59-1.81,1.18-2.71,1.76c-1.43,0.93-2.9,1.82-4.3,2.81c-2.03,1.43-1.77,3.79-0.67,5.14c1,1.22,2.92,1.35,3.96,0.67
			c1.06-0.68,2.14-1.33,3.2-2.01c0.46-0.29,0.56-0.31,0.99-0.01c0.53,0.38,1.07,0.75,1.61,1.13c1.18,0.84,2.36,1.7,3.55,2.52
			c0.46,0.32,0.66,0.68,0.51,1.25c-0.26,0.97-0.46,1.96-0.7,2.94c-0.57,2.34,0.73,4.1,2.84,4.38c1.26,0.17,2.86-0.57,3.41-1.87
			c0.36-0.85,0.6-1.71,0.8-2.6c0.17-0.73,0.31-1.46,0.49-2.19c0.24-0.97,0.51-1.94,0.74-2.91c0.2-0.84,0.34-1.7,0.54-2.54
			c0.23-0.95,0.49-1.9,0.73-2.85c0.06-0.25,0.07-0.51,0.13-0.76c0.21-0.81,0.44-1.62,0.64-2.43c0.22-0.91,0.33-1.85,0.63-2.73
			C71.75,203.58,71.85,202.83,71.85,201.89z M193.5,188.57c-0.05,0.84,0.24,1.59,0.56,2.32c0.5,1.14,1.07,2.24,1.6,3.37
			c1.17,2.49,2.32,4.98,3.49,7.46c0.81,1.72,1.65,3.43,2.49,5.14c0.38,0.78,0.76,1.57,1.22,2.3c0.44,0.71,1.07,1.24,1.94,1.42
			c1.54,0.32,2.79-0.16,3.74-1.38c0.6-0.77,0.75-1.72,0.41-2.61c-0.49-1.26-1.13-2.47-1.72-3.69c-0.24-0.49-0.27-0.56,0.12-0.98
			c0.93-1.02,1.88-2.03,2.81-3.05c0.54-0.59,1.07-1.18,1.59-1.79c0.28-0.33,0.58-0.41,0.99-0.25c0.98,0.39,1.97,0.75,2.96,1.11
			c1.12,0.4,2.25,0.54,3.32-0.15c0.63-0.41,1.11-0.94,1.41-1.69c0.25-0.63,0.29-1.26,0.18-1.86c-0.09-0.5-0.23-1.04-0.65-1.45
			c-0.86-0.84-1.93-1.3-3.03-1.72c-0.94-0.36-1.9-0.68-2.84-1.04c-1-0.38-1.99-0.81-2.99-1.2c-0.85-0.33-1.72-0.63-2.57-0.96
			c-1.61-0.63-3.21-1.29-4.83-1.91c-1.35-0.52-2.72-0.99-4.08-1.5c-1.2-0.45-2.39-0.49-3.54,0.12
			C194.49,185.44,193.57,186.74,193.5,188.57z M39.7,197.47c0.16-0.21,0.23-0.34,0.33-0.43c1.4-1.31,2.8-2.63,4.21-3.92
			c1.49-1.36,3-2.68,4.49-4.03c0.83-0.75,1.67-1.5,2.45-2.31c0.82-0.85,1.51-1.8,1.44-3.09c-0.03-0.63-0.21-1.22-0.56-1.72
			c-0.63-0.91-1.46-1.57-2.65-1.63c-1.11-0.06-2.02,0.37-2.81,1.09c-1.7,1.55-3.39,3.11-5.08,4.66c-1.23,1.13-2.45,2.25-3.68,3.38
			c-1.21,1.11-2.41,2.23-3.61,3.35c-0.7,0.66-1.5,1.23-1.95,2.12c-0.41,0.81-0.69,1.59-0.34,2.56c0.34,0.94,0.92,1.67,1.58,2.38
			c1.34,1.45,2.68,2.9,4.02,4.34c1.15,1.24,2.29,2.49,3.46,3.7c0.32,0.33,0.73,0.61,1.15,0.79c1.95,0.84,4.01-0.48,4.24-2.53
			c0.1-0.89-0.26-1.67-0.83-2.31c-1.15-1.32-2.35-2.61-3.54-3.9C41.27,199.14,40.5,198.33,39.7,197.47z M122.37,241.88
			c0-0.02,0.01-0.05,0.01-0.07c0.49,0,1,0.06,1.48-0.01c0.91-0.13,1.64-0.55,2.19-1.35c0.43-0.62,0.4-1.28,0.39-1.96
			c-0.01-1.03-0.75-2.02-1.71-2.45c-0.69-0.31-1.39-0.4-2.12-0.41c-0.56-0.01-1.13-0.05-1.69-0.1c-0.39-0.04-0.78-0.15-1.18-0.17
			c-1.32-0.07-2.63-0.11-3.95-0.18c-0.77-0.04-0.83-0.13-0.71-0.88c0.02-0.09,0.02-0.19,0.02-0.28c0.13-1.9,0.05-3.8,0.4-5.69
			c0.18-0.94,0.11-1.92,0.17-2.89c0.1-1.57,0.24-3.13,0.34-4.7c0.05-0.8,0.08-1.6,0.07-2.4c0-0.34-0.08-0.71-0.21-1.03
			c-0.57-1.37-2.42-2.52-4.17-1.96c-1.41,0.45-2.15,1.4-2.42,2.74c-0.2,1.01-0.26,2.05-0.34,3.08c-0.18,2.27-0.32,4.55-0.49,6.83
			c-0.12,1.71-0.26,3.42-0.38,5.14c-0.09,1.24-0.2,2.49-0.22,3.73c-0.01,0.69,0.06,1.43,0.28,2.08c0.43,1.25,1.51,1.74,2.71,1.96
			c1.5,0.28,3.04,0.12,4.56,0.39c1.29,0.23,2.63,0.14,3.94,0.2c0.26,0.01,0.52,0.02,0.77,0.05
			C120.89,241.66,121.63,241.77,122.37,241.88z M128.06,161.31c-0.07,0-0.13-0.01-0.2-0.01c-0.17,1.32-0.46,2.65-0.49,3.97
			c-0.05,2.7-0.16,5.4,0.34,8.1c0.3,1.64,0.6,3.28,1.06,4.88c0.42,1.48,0.97,2.94,1.54,4.37c0.57,1.41,1.17,2.82,1.88,4.17
			c1.33,2.54,2.96,4.9,4.76,7.14c1.49,1.86,3.19,3.51,5.03,5.01c0.4,0.33,0.84,0.61,1.26,0.91c-0.47-1.25-1-2.43-1.56-3.58
			c-0.63-1.3-1.32-2.58-1.94-3.89c-0.65-1.37-1.26-2.76-1.89-4.15c-0.45-1-0.89-2-1.33-3.01c-0.2-0.45-0.37-0.91-0.56-1.36
			c-0.35-0.84-0.73-1.67-1.07-2.51c-0.35-0.87-0.67-1.75-1.01-2.62c-0.5-1.26-1.02-2.5-1.49-3.77c-0.37-1.01-0.67-2.04-1.01-3.06
			c-0.35-1.04-0.75-2.06-1.08-3.1c-0.45-1.4-0.86-2.81-1.28-4.22C128.69,163.51,128.38,162.41,128.06,161.31z M147.26,112.81
			c0.2-1.21-1.08-3.51-2.35-4.33c-2.27-1.45-4.56-1.51-6.87-0.09c-1.29,0.8-2.65,3.14-2.49,4.39c0.98-0.32,1.94-0.68,2.92-0.95
			c0.87-0.24,1.77-0.43,2.66-0.58c1.03-0.17,1.99,0.25,2.96,0.49C145.14,112.01,146.16,112.44,147.26,112.81z M165.18,96.82
			c0.04,0.01,0.08,0.02,0.12,0.03c0.03-0.12,0.06-0.25,0.09-0.37c-0.03-0.01-0.06-0.01-0.1-0.02
			C165.26,96.58,165.22,96.7,165.18,96.82z"/>
		<path d="M237.5,122.74c-0.09,0.23-0.25,0.45-0.27,0.69c-0.05,0.61-0.04,1.22-0.06,1.84c-0.05,1.46-0.01,2.93-0.19,4.37
			c-0.12,0.95-0.22,1.91-0.3,2.86c-0.01,0.09-0.03,0.19-0.04,0.28c-0.21,1.84-0.38,3.69-0.63,5.52c-0.14,1.04-0.42,2.05-0.63,3.08
			c-0.05,0.25-0.04,0.52-0.1,0.77c-0.25,1.12-0.51,2.23-0.76,3.35c-0.17,0.77-0.31,1.56-0.5,2.33c-0.22,0.88-0.5,1.75-0.75,2.62
			c-0.16,0.56-0.31,1.13-0.49,1.69c-0.41,1.31-0.82,2.63-1.24,3.94c-0.33,1.05-0.65,2.1-1.03,3.13c-0.46,1.25-0.97,2.48-1.48,3.7
			c-0.63,1.51-1.25,3.02-1.93,4.51c-0.58,1.27-1.23,2.51-1.86,3.77c-0.5,1-1,2-1.51,3c-0.3,0.58-0.6,1.16-0.93,1.73
			c-0.52,0.89-1.02,1.79-1.62,2.62c-1.07,1.48-2.32,1.64-3.96,1.21c-1.71-0.45-2.63-2.5-2.05-4.07c0.29-0.79,0.77-1.45,1.15-2.17
			c1.08-2.06,2.24-4.07,3.3-6.14c0.83-1.61,1.62-3.24,2.32-4.91c0.74-1.75,1.54-3.48,2.06-5.32c0.3-1.03,0.75-2.02,1.1-3.04
			c0.36-1.07,0.66-2.15,0.99-3.23c0.15-0.49,0.31-0.99,0.45-1.48c0.38-1.36,0.76-2.71,1.12-4.07c0.17-0.64,0.31-1.28,0.44-1.92
			c0.19-0.94,0.36-1.89,0.54-2.83c0.24-1.24,0.49-2.49,0.71-3.73c0.08-0.44,0.09-0.89,0.15-1.33c0.21-1.44,0.33-2.9,0.53-4.34
			c0.29-2.16,0.25-4.32,0.43-6.48c0.19-2.36,0.16-4.71,0.1-7.06c-0.05-1.98-0.14-3.96-0.3-5.93c-0.15-1.73-0.43-3.45-0.65-5.18
			c-0.04-0.28-0.06-0.56-0.1-0.84c-0.17-1.21-0.31-2.43-0.54-3.63c-0.32-1.68-0.71-3.35-1.08-5.03c-0.19-0.87-0.37-1.75-0.59-2.61
			c-0.19-0.75-0.43-1.48-0.64-2.23c-0.18-0.63-0.35-1.27-0.55-1.9c-0.39-1.25-0.79-2.5-1.2-3.74c-0.37-1.14-0.73-2.28-1.15-3.41
			c-0.46-1.23-0.97-2.45-1.48-3.65c-0.46-1.08-0.95-2.15-1.45-3.21c-0.51-1.08-1.03-2.16-1.58-3.23c-0.71-1.38-1.42-2.76-2.18-4.1
			c-0.87-1.53-1.78-3.04-2.72-4.53c-1-1.59-2.04-3.16-3.09-4.72c-0.58-0.86-1.19-1.69-1.83-2.5c-1.37-1.73-2.73-3.47-4.16-5.15
			c-1.25-1.46-2.57-2.86-3.89-4.26c-2.14-2.28-4.34-4.49-6.72-6.52c-1.98-1.69-3.99-3.34-6.06-4.93c-1.73-1.33-3.52-2.57-5.33-3.79
			c-1.48-0.99-3.01-1.91-4.54-2.82c-1.59-0.95-3.19-1.87-4.81-2.76c-0.92-0.51-1.87-0.95-2.82-1.41c-1.09-0.53-2.18-1.08-3.29-1.57
			c-1.18-0.52-2.37-0.99-3.57-1.47c-1.08-0.43-2.17-0.86-3.27-1.26c-0.92-0.34-1.86-0.64-2.79-0.95c-1.2-0.39-2.4-0.78-3.61-1.16
			c-0.54-0.17-1.08-0.32-1.62-0.46c-0.77-0.2-1.55-0.36-2.32-0.56c-0.88-0.22-1.76-0.47-2.64-0.7c-0.2-0.05-0.42-0.05-0.63-0.09
			c-1.19-0.25-2.38-0.51-3.57-0.76c-0.37-0.07-0.75-0.09-1.12-0.14c-1.21-0.16-2.43-0.26-3.62-0.52c-1.23-0.27-2.48-0.22-3.7-0.42
			c-2.34-0.39-4.69-0.31-7.03-0.43c-1.36-0.07-2.72-0.26-4.09-0.2c-0.4,0.02-0.8,0.06-1.2,0.08c-0.68,0.05-1.36,0.12-2.04,0.14
			c-1.67,0.07-3.34,0.09-5.01,0.18c-0.89,0.05-1.77,0.21-2.65,0.32c-1.4,0.17-2.8,0.31-4.19,0.52c-1.06,0.16-2.11,0.42-3.16,0.62
			c-0.28,0.05-0.56,0.06-0.84,0.12c-1.37,0.29-2.75,0.56-4.12,0.89c-1.43,0.34-2.85,0.74-4.27,1.13c-0.52,0.14-1.03,0.3-1.55,0.45
			c-1.15,0.34-2.3,0.65-3.43,1.03c-1,0.33-1.97,0.73-2.96,1.09c-0.53,0.19-1.06,0.36-1.59,0.57c-1.31,0.51-2.62,1.01-3.91,1.55
			c-1.16,0.49-2.31,1.03-3.45,1.56c-0.95,0.45-1.9,0.9-2.83,1.4c-1.51,0.8-3,1.62-4.49,2.47c-0.91,0.52-1.81,1.08-2.69,1.65
			c-1.69,1.09-3.37,2.2-5.05,3.32c-0.72,0.48-1.45,0.95-2.13,1.48c-1.54,1.18-3.06,2.39-4.57,3.59c-2.24,1.78-4.31,3.76-6.39,5.71
			c-1.85,1.73-3.46,3.68-5.22,5.49c-1.76,1.82-3.33,3.8-4.87,5.8c-1.3,1.68-2.51,3.43-3.72,5.17c-0.98,1.42-1.94,2.87-2.84,4.34
			c-0.83,1.35-1.58,2.75-2.36,4.14c-0.48,0.86-0.97,1.71-1.41,2.59c-0.67,1.34-1.32,2.68-1.96,4.04c-0.51,1.08-1,2.16-1.49,3.25
			c-0.2,0.45-0.38,0.9-0.57,1.36c-0.4,1-0.82,1.98-1.18,2.99c-0.38,1.05-0.71,2.13-1.06,3.2c-0.26,0.8-0.52,1.6-0.77,2.4
			c-0.19,0.63-0.35,1.26-0.54,1.89c-0.24,0.83-0.49,1.65-0.73,2.48c-0.04,0.13-0.07,0.27-0.1,0.41c-0.26,1.04-0.52,2.08-0.78,3.12
			c-0.05,0.23-0.06,0.47-0.1,0.7c-0.18,1.01-0.29,2.05-0.58,3.03c-0.23,0.78-0.2,1.59-0.41,2.35c-0.26,0.96-0.22,1.96-0.44,2.91
			c-0.27,1.16-0.21,2.34-0.41,3.49c-0.38,2.17-0.2,4.37-0.46,6.53c-0.26,2.24-0.13,4.46-0.18,6.69c-0.01,0.37,0.1,0.74,0.15,1.11
			c0.03,0.26,0.06,0.51,0.07,0.77c0.06,1.62,0.09,3.25,0.18,4.87c0.05,0.86,0.21,1.72,0.31,2.58c0.04,0.3,0.04,0.61,0.08,0.91
			c0.1,0.74,0.22,1.48,0.32,2.22c0.18,1.23,0.33,2.46,0.55,3.68c0.17,0.94,0.43,1.86,0.64,2.79c0.05,0.23,0.05,0.47,0.1,0.7
			c0.27,1.18,0.52,2.37,0.83,3.54c0.38,1.44,0.81,2.87,1.21,4.31c0.18,0.65,0.35,1.31,0.56,1.95c0.41,1.27,0.83,2.53,1.26,3.79
			c0.33,0.95,0.67,1.89,1.02,2.83c0.29,0.76,0.6,1.52,0.92,2.27c0.36,0.84,0.72,1.67,1.11,2.49c0.52,1.1,1.06,2.18,1.6,3.27
			c0.45,0.92,0.9,1.85,1.38,2.75c0.61,1.16,1.23,2.31,1.89,3.44c0.64,1.11,1.35,2.18,1.99,3.29c0.87,1.5,0.51,3.35-1.06,4.46
			c-0.39,0.28-0.82,0.4-1.3,0.47c-1.78,0.25-2.97-0.54-3.82-2.03c-1.21-2.12-2.47-4.21-3.68-6.33c-0.45-0.79-0.8-1.65-1.19-2.47
			c-0.67-1.4-1.36-2.78-1.99-4.2c-0.66-1.48-1.28-2.97-1.89-4.47c-0.52-1.28-1.03-2.57-1.5-3.87c-0.37-1.02-0.69-2.05-1.01-3.08
			c-0.36-1.14-0.73-2.28-1.07-3.42c-0.23-0.79-0.42-1.59-0.64-2.38c-0.21-0.77-0.43-1.53-0.63-2.3c-0.17-0.66-0.33-1.32-0.48-1.99
			c-0.19-0.89-0.37-1.79-0.54-2.69c-0.24-1.24-0.47-2.49-0.7-3.73c0-0.02-0.01-0.05-0.01-0.07c-0.19-1.44-0.39-2.89-0.58-4.33
			c-0.11-0.86-0.23-1.73-0.3-2.59c-0.11-1.29-0.16-2.59-0.28-3.88c-0.33-3.76-0.37-7.53-0.18-11.3c0.12-2.42,0.26-4.84,0.47-7.26
			c0.13-1.5,0.39-2.98,0.59-4.47c0.03-0.26,0.07-0.51,0.11-0.77c0.25-1.5,0.5-3.01,0.77-4.51c0.13-0.74,0.28-1.48,0.43-2.21
			c0.18-0.9,0.36-1.8,0.57-2.69c0.2-0.85,0.44-1.68,0.66-2.52c0.16-0.61,0.32-1.23,0.51-1.83c0.68-2.2,1.36-4.4,2.05-6.59
			c0.32-1.01,0.67-2.01,1.03-3c0.29-0.77,0.61-1.52,0.94-2.28c0.63-1.47,1.26-2.94,1.91-4.39c0.47-1.05,0.97-2.08,1.47-3.12
			c0.4-0.82,0.78-1.66,1.21-2.46c0.74-1.39,1.49-2.77,2.28-4.13c0.77-1.32,1.56-2.63,2.41-3.9c1.35-2.03,2.73-4.05,4.15-6.03
			c0.95-1.34,2.02-2.59,3-3.91c1.94-2.6,4.17-4.95,6.37-7.33c1.87-2.03,3.88-3.91,5.9-5.77c2.51-2.3,5.13-4.47,7.86-6.5
			c1.52-1.13,3.05-2.26,4.62-3.32c1.81-1.22,3.63-2.41,5.51-3.52c1.99-1.18,4.03-2.29,6.08-3.36c1.58-0.82,3.19-1.57,4.82-2.3
			c1.64-0.74,3.3-1.44,4.97-2.12c1.62-0.66,3.26-1.29,4.9-1.91c0.59-0.22,1.21-0.38,1.81-0.57c0.71-0.23,1.42-0.46,2.13-0.69
			c0.49-0.15,0.98-0.31,1.48-0.44c0.79-0.21,1.59-0.4,2.38-0.61c0.77-0.2,1.53-0.42,2.29-0.63c0.05-0.01,0.09-0.04,0.13-0.05
			c1.01-0.2,2.02-0.39,3.03-0.61c0.96-0.2,1.92-0.43,2.87-0.64c0.21-0.05,0.42-0.07,0.63-0.09c1.32-0.18,2.66-0.3,3.97-0.57
			c1.18-0.25,2.39-0.23,3.56-0.44c1.59-0.29,3.19-0.23,4.77-0.41c4.33-0.49,8.66-0.21,12.99-0.23c0.47,0,0.93,0.1,1.4,0.15
			c0.33,0.04,0.65,0.08,0.98,0.1c1.15,0.06,2.31,0.09,3.46,0.18c0.86,0.07,1.72,0.21,2.58,0.33c1.3,0.17,2.61,0.31,3.9,0.52
			c1.06,0.17,2.11,0.43,3.16,0.64c0.3,0.06,0.61,0.04,0.91,0.11c1.05,0.23,2.1,0.49,3.15,0.73c0.66,0.15,1.32,0.3,1.98,0.46
			c1.34,0.33,2.69,0.64,4.02,1.01c1.42,0.4,2.83,0.82,4.23,1.3c1.37,0.46,2.72,1,4.07,1.51c1.25,0.47,2.51,0.91,3.73,1.43
			c1.74,0.75,3.46,1.54,5.17,2.35c1.58,0.75,3.16,1.52,4.71,2.34c1.47,0.78,2.9,1.61,4.33,2.45c1.23,0.72,2.46,1.45,3.65,2.23
			c1.33,0.87,2.64,1.78,3.93,2.71c1.33,0.95,2.66,1.92,3.95,2.92c1.18,0.92,2.35,1.86,3.48,2.84c2.01,1.76,4.01,3.52,5.95,5.35
			c1.29,1.22,2.49,2.54,3.71,3.83c1.06,1.12,2.12,2.25,3.14,3.41c0.6,0.68,1.09,1.46,1.7,2.14c1.63,1.81,3.05,3.78,4.5,5.73
			c1.2,1.61,2.3,3.29,3.39,4.98c0.91,1.41,1.78,2.86,2.61,4.32c0.83,1.46,1.61,2.95,2.38,4.44c0.8,1.53,1.58,3.07,2.34,4.62
			c0.37,0.76,0.67,1.55,1,2.32c0.52,1.22,1.07,2.43,1.57,3.66c0.37,0.93,0.69,1.89,1.02,2.83c0.32,0.9,0.63,1.81,0.94,2.71
			c0.24,0.71,0.48,1.41,0.72,2.13c0.24,0.73,0.48,1.46,0.69,2.2c0.2,0.7,0.38,1.4,0.55,2.1c0.18,0.73,0.35,1.46,0.52,2.18
			c0.25,1.04,0.54,2.08,0.77,3.12c0.2,0.91,0.27,1.86,0.52,2.75c0.22,0.78,0.22,1.58,0.41,2.34c0.38,1.47,0.31,2.99,0.58,4.46
			c0.24,1.3,0.21,2.63,0.42,3.91c0.4,2.43,0.31,4.88,0.42,7.32c0.01,0.29-0.08,0.63,0.28,0.81
			C237.5,119.72,237.5,121.23,237.5,122.74z"/>
		<path d="M98.83,157.22c0.32-0.12,0.58,0.01,0.85,0.19c0.97,0.66,2.01,1.19,3.13,1.56c0.64,0.21,1.27,0.46,1.93,0.63
			c0.52,0.13,1.07,0.21,1.61,0.21c1.43-0.01,2.87-0.02,4.3-0.13c0.71-0.06,1.42-0.3,2.11-0.52c1.23-0.4,2.41-0.92,3.51-1.58
			c1.18-0.71,2.34-1.47,3.45-2.28c2.02-1.47,3.73-3.29,5.43-5.11c2.13-2.28,4.27-4.57,6.48-6.77c2.48-2.47,5.05-4.85,7.86-6.94
			c1.42-1.06,2.95-2,4.48-2.9c1.25-0.73,2.55-1.39,3.88-1.97c1.02-0.45,2.12-0.72,3.19-1.06c1.32-0.42,2.69-0.61,4.05-0.87
			c0.95-0.18,1.78-0.63,2.32-1.55c1.01-1.7,1.91-3.43,2.59-5.3c0.54-1.5,0.89-3.04,1.07-4.59c0.18-1.62,0.25-3.29-0.16-4.92
			c-0.24-0.96-0.36-1.94-0.62-2.89c-0.24-0.86-0.55-1.7-0.92-2.51c-0.88-1.96-2-3.78-3.33-5.46c-1.54-1.94-3.29-3.68-5.22-5.22
			c-1.63-1.3-3.34-2.5-5.21-3.44c-1.19-0.6-2.43-1.09-3.66-1.6c-0.91-0.38-1.83-0.73-2.75-1.05c-0.62-0.22-1.25-0.38-1.89-0.55
			c-0.99-0.27-1.99-0.52-2.99-0.77c-0.3-0.07-0.61-0.08-0.91-0.13c-1.65-0.27-3.29-0.52-4.97-0.52c-0.47,0-0.94-0.12-1.41-0.14
			c-0.75-0.02-1.5-0.02-2.25,0c-0.68,0.02-1.36,0.11-2.04,0.15c-0.94,0.06-1.89,0.05-2.82,0.18c-1.11,0.15-2.21,0.42-3.31,0.63
			c-0.14,0.03-0.28,0.04-0.42,0.06c-1.59,0.3-3.15,0.67-4.68,1.23c-1.27,0.47-2.57,0.88-3.84,1.35c-1.69,0.63-3.34,1.34-4.95,2.17
			c-2.15,1.1-4.19,2.38-6.21,3.68c-1.47,0.95-2.82,2.08-4.24,3.11c-1.63,1.18-3.18,2.47-4.63,3.86c-1.79,1.71-3.55,3.46-5.26,5.26
			c-1.23,1.31-2.36,2.72-3.52,4.09c-0.32,0.37-0.58,0.79-0.9,1.16c-0.53,0.62-1.19,1.03-1.99,1.26c-0.48,0.14-0.94,0.3-1.44,0.26
			c-1.68-0.15-3.26-1.07-3.95-2.83c-0.29-0.75-0.37-1.5-0.34-2.28c0.06-1.86-0.62-3.49-1.52-5.05c-1.63-2.82-3.83-5.22-5.81-7.79
			c-1.29-1.67-2.5-3.4-3.67-5.16c-0.87-1.31-1.58-2.71-2.18-4.17c-0.16-0.39-0.29-0.8-0.4-1.2c-0.18-0.66-0.34-1.32-0.48-1.99
			c-0.38-1.8-0.52-3.63-0.71-5.45c-0.17-1.73,0.07-3.44,0.31-5.13c0.23-1.62,0.74-3.18,1.42-4.7c1.15-2.59,2.84-4.74,4.99-6.55
			c1.35-1.14,2.84-2.06,4.46-2.77c1.31-0.57,2.64-1.09,4-1.52c0.91-0.29,1.87-0.41,2.81-0.61c0.43-0.09,0.86-0.23,1.3-0.28
			c0.77-0.09,1.57-0.03,2.32-0.2c1.61-0.37,3.24-0.18,4.85-0.21c0.42-0.01,0.83,0.11,1.25,0.17c0.26,0.03,0.51,0.07,0.77,0.08
			c1.1,0.04,2.2,0.09,3.28,0.39c0.9,0.25,1.85,0.32,2.76,0.53c0.86,0.2,1.71,0.48,2.56,0.72c0.02,0.01,0.04,0.02,0.07,0.02
			c1.19,0.26,1.37,0.31,1.18-0.87c-0.33-2.09-0.34-4.18-0.23-6.27c0.07-1.45,0.37-2.89,0.6-4.32c0.11-0.67,0.31-1.33,0.49-1.98
			c0.67-2.42,1.73-4.65,3.25-6.67c1.06-1.42,2.25-2.7,3.66-3.79c0.94-0.72,1.96-1.27,3.03-1.76c0.85-0.39,1.71-0.75,2.58-1.09
			c0.5-0.19,1.02-0.35,1.54-0.47c2.17-0.48,4.37-0.76,6.58-0.42c1.13,0.18,2.26,0.46,3.32,0.86c1.28,0.49,2.53,1.11,3.73,1.79
			c1.2,0.68,2.25,1.6,3.21,2.59c1.08,1.1,2.19,2.19,3.15,3.39c1,1.25,1.9,2.6,2.74,3.97c0.88,1.43,1.68,2.92,2.42,4.42
			c0.57,1.15,1,2.37,1.46,3.57c0.39,1.02,0.74,2.06,1.08,3.1c0.1,0.31,0.14,0.64,0.21,0.96c0.17,0.75,0.34,1.5,0.52,2.25
			c0.02,0.09,0.09,0.16,0.19,0.32c0.24-0.17,0.47-0.31,0.66-0.5c1.23-1.17,2.59-2.18,4.03-3.05c1.32-0.79,2.69-1.5,4.18-1.98
			c1.37-0.45,2.74-0.82,4.19-0.83c0.21,0,0.42-0.09,0.63-0.1c0.32-0.02,0.64-0.02,0.96,0c0.37,0.02,0.75,0.12,1.12,0.12
			c1.44,0.02,2.78,0.45,4.06,1.04c0.93,0.43,1.82,0.96,2.69,1.51c1.34,0.84,2.36,2.04,3.41,3.2c1.17,1.3,1.98,2.83,2.87,4.31
			c0.44,0.73,0.72,1.57,1.03,2.37c0.39,1.02,0.73,2.07,1.09,3.1c0.01,0.02,0.02,0.04,0.02,0.07c0.2,1.03,0.4,2.07,0.6,3.1
			c0.11,0.6,0.26,1.19,0.29,1.79c0.09,1.79,0.16,3.58,0.16,5.37c0,1.34,0.01,2.7-0.21,4.02c-0.18,1.05-0.17,2.15-0.6,3.16
			c-0.09,0.21-0.05,0.47-0.11,0.69c-0.23,0.83-0.48,1.66-0.73,2.48c-0.17,0.56-0.31,1.13-0.53,1.67c-0.45,1.14-0.95,2.26-1.55,3.35
			c0.03-0.15,0.03-0.31,0.09-0.45c0.53-1.43,0.93-2.9,1.29-4.39c0.69-2.84,0.9-5.71,0.86-8.61c-0.02-1.41-0.05-2.83-0.19-4.23
			c-0.12-1.14-0.41-2.26-0.64-3.38c-0.13-0.62-0.3-1.23-0.46-1.84c-0.74-2.85-1.96-5.49-3.6-7.91c-1.28-1.89-2.8-3.61-4.79-4.8
			c-1.25-0.74-2.53-1.4-4.03-1.58c-0.62-0.08-1.23-0.29-1.88-0.25c-1.15,0.06-2.26,0.31-3.36,0.66c-1.82,0.57-3.43,1.5-4.93,2.65
			c-0.91,0.7-1.71,1.52-2.59,2.26c-1.39,1.16-2.48,2.61-3.61,4c-0.37,0.45-0.67,0.97-1.17,1.29c-1.14,0.73-3.39,0.32-3.73-1.44
			c-0.13-0.67-0.22-1.35-0.28-2.03c-0.12-1.39-0.42-2.74-0.82-4.07c-0.34-1.12-0.63-2.26-1.05-3.35c-0.54-1.4-1.14-2.78-1.8-4.13
			c-0.56-1.14-1.2-2.23-1.86-3.31c-0.56-0.92-1.19-1.8-1.82-2.67c-1.35-1.88-2.9-3.57-4.74-5c-1.14-0.88-2.38-1.56-3.71-2.1
			c-0.93-0.38-1.9-0.55-2.87-0.65c-1.2-0.14-2.36,0.27-3.51,0.59c-0.84,0.24-1.63,0.57-2.4,0.98c-1.61,0.86-2.93,2.04-4,3.53
			c-0.89,1.24-1.49,2.61-1.93,4.03c-0.39,1.29-0.67,2.64-0.65,4.01c0.03,1.91,0.03,3.82,0.17,5.72c0.07,1.01,0.41,2.01,0.62,3.01
			c0.02,0.09,0.04,0.18,0.05,0.28c0.17,1,0.49,1.94,0.82,2.89c0.34,0.95,0.65,1.9,0.98,2.85c0.17,0.48,0.33,0.97,0.53,1.45
			c0.35,0.84,0.26,1.66,0.02,2.53c-0.35,1.25-1.18,1.98-2.26,2.52c-0.21,0.1-0.44,0.17-0.67,0.19c-0.44,0.04-0.89,0.04-1.34,0.05
			c-1.3,0.03-2.27-0.63-2.95-1.64c-0.68-0.99-1.58-1.65-2.58-2.22c-1.18-0.67-2.44-1.17-3.72-1.63c-0.64-0.23-1.31-0.37-1.97-0.52
			c-1.16-0.27-2.33-0.55-3.5-0.75c-0.86-0.14-1.74-0.2-2.6-0.19c-2.14,0.01-4.29,0.03-6.43,0.16c-0.92,0.06-1.82,0.39-2.73,0.61
			c-0.52,0.13-1.03,0.31-1.54,0.47c-2.32,0.72-4.28,1.98-5.83,3.86c-0.7,0.85-1.17,1.84-1.54,2.88c-0.3,0.85-0.32,1.75-0.52,2.61
			c-0.2,0.83-0.17,1.63-0.13,2.45c0.03,0.58,0.15,1.16,0.25,1.73c0.18,1.01,0.3,2.05,0.58,3.03c0.3,1.06,0.79,2.05,1.37,2.99
			c0.84,1.38,1.74,2.71,2.76,3.96c1,1.23,2.02,2.45,3.01,3.7c1.12,1.41,2.24,2.81,3.14,4.38c0.45,0.78,0.95,1.54,1.49,2.39
			c0.37-0.35,0.71-0.65,1.04-0.98c2.22-2.23,4.55-4.34,7-6.31c1.1-0.88,2.19-1.77,3.34-2.58c1.46-1.02,2.94-2,4.46-2.93
			c1.54-0.94,3.1-1.85,4.69-2.69c1.36-0.72,2.77-1.37,4.18-2c1.17-0.53,2.36-1.03,3.56-1.49c0.98-0.37,2-0.67,3-0.98
			c0.8-0.25,1.61-0.5,2.42-0.71c0.84-0.22,1.68-0.41,2.53-0.59c1.21-0.25,2.43-0.48,3.65-0.71c0.28-0.05,0.56-0.04,0.84-0.08
			c2.66-0.36,5.34-0.47,8.02-0.42c0.61,0.01,1.23,0.02,1.84,0.03c0.61,0.01,1.21,0.07,1.81,0.2c0.8,0.17,1.64,0.11,2.46,0.24
			c1.13,0.17,2.25,0.42,3.37,0.64c0.16,0.03,0.33,0.04,0.49,0.08c0.97,0.25,1.95,0.5,2.92,0.76c0.52,0.14,1.03,0.32,1.54,0.47
			c2.49,0.71,4.84,1.75,7.13,2.93c2.74,1.4,5.31,3.05,7.66,5.05c0.91,0.78,1.88,1.5,2.72,2.34c1.39,1.39,2.79,2.8,3.87,4.44
			c1.21,1.83,2.43,3.66,3.25,5.72c0.42,1.06,0.86,2.12,1.22,3.2c0.31,0.93,0.57,1.87,0.79,2.83c0.56,2.4,0.57,4.85,0.46,7.29
			c-0.03,0.76,0,1.55-0.33,2.29c-0.11,0.25-0.04,0.57-0.11,0.84c-0.23,0.88-0.48,1.75-0.75,2.62c-0.3,0.93-0.6,1.87-0.99,2.77
			c-0.4,0.92-0.85,1.82-1.36,2.68c-0.69,1.17-1.42,2.31-2.19,3.42c-0.63,0.9-1.5,1.54-2.5,2.01c-1.13,0.53-2.34,0.73-3.58,0.94
			c-1.2,0.2-2.4,0.35-3.6,0.59c-2.44,0.49-4.6,1.56-6.75,2.71c-1.45,0.78-2.82,1.67-4.17,2.59c-1.67,1.13-3.23,2.39-4.78,3.68
			c-2.03,1.69-4.05,3.4-5.99,5.2c-1.47,1.37-2.94,2.75-4.44,4.09c-1.92,1.72-3.97,3.28-6.23,4.52c-1.37,0.75-2.77,1.45-4.29,1.91
			c-1.28,0.38-2.54,0.8-3.89,0.86c-0.53,0.02-1.07,0.23-1.6,0.21c-1.48-0.03-2.93-0.27-4.37-0.63c-1.83-0.46-3.45-1.32-5.01-2.32
			C99.73,157.89,99.29,157.54,98.83,157.22L98.83,157.22z"/>
		<path d="M170.6,118.51c0.18,0.05,0.39,0.06,0.52,0.17c0.99,0.78,1.96,1.58,2.95,2.37c0.44,0.35,0.89,0.68,1.33,1.03
			c1.32,1.04,2.64,2.09,3.96,3.14c0.46,0.37,0.89,0.76,1.34,1.14c1.03,0.88,2.07,1.75,3.1,2.63c1.61,1.39,3.23,2.76,4.83,4.17
			c1.11,0.98,1.09,2.81-0.2,3.81c-0.34,0.26-0.72,0.39-1.16,0.46c-0.97,0.16-1.92,0.4-2.88,0.61c-0.16,0.03-0.32,0.07-0.48,0.09
			c-1.18,0.2-2.36,0.38-3.54,0.59c-1.52,0.27-3.04,0.54-4.56,0.83c-1.03,0.2-2.06,0.44-3.09,0.65c-0.23,0.05-0.47,0.05-0.7,0.09
			c-1.18,0.18-2.36,0.35-3.54,0.54c-0.76,0.12-1.55,0.19-2.27,0.43c-1.03,0.35-2.09,0.69-2.91,1.5c-0.34,0.34-0.49,0.72-0.52,1.18
			c-0.09,1.44,0.23,2.77,0.79,4.1c0.74,1.77,1.72,3.41,2.6,5.11c1.04,2.02,2.1,4.02,3.13,6.04c0.59,1.17,1.14,2.36,1.7,3.54
			c0.5,1.05,1.04,2.09,1.5,3.16c0.39,0.92,0.72,1.88,1.04,2.83c0.3,0.86,0.59,1.72,0.82,2.6c0.24,0.93,0.41,1.87,0.61,2.81
			c0.11,0.5,0.25,1,0.3,1.51c0.19,1.78,0.25,3.58-0.03,5.35c-0.18,1.1-0.56,2.15-1.02,3.18c-0.73,1.63-1.92,2.81-3.32,3.81
			c-0.64,0.46-1.37,0.82-2.09,1.12c-1.19,0.5-2.45,0.73-3.72,0.97c-1.27,0.24-2.53,0.29-3.78,0.18c-1.16-0.09-2.32-0.25-3.46-0.58
			c-0.93-0.27-1.85-0.54-2.7-0.98c-1.13-0.57-2.25-1.16-3.31-1.84c-2.09-1.35-3.79-3.14-5.36-5.04c-1.64-1.97-3.07-4.1-4.15-6.43
			c-0.69-1.49-1.37-2.99-1.93-4.53c-0.44-1.18-0.72-2.43-1.01-3.66c-0.26-1.12-0.45-2.26-0.66-3.39c-0.03-0.14-0.04-0.28-0.04-0.42
			c0-1.27,0-2.54,0-3.85c0.21,0.94,0.39,1.85,0.62,2.75c0.17,0.65,0.4,1.29,0.64,1.92c0.31,0.85,0.61,1.72,0.99,2.54
			c0.57,1.23,1.18,2.44,1.83,3.63c0.47,0.86,1,1.68,1.56,2.49c0.72,1.04,1.46,2.06,2.24,3.05c0.52,0.66,1.08,1.29,1.66,1.9
			c1.26,1.32,2.58,2.59,4.09,3.61c1.45,0.99,2.99,1.82,4.67,2.42c1.84,0.65,3.71,0.9,5.61,0.66c1.59-0.2,3.19-0.54,4.53-1.56
			c0.75-0.57,1.25-1.29,1.52-2.23c0.35-1.22,0.36-2.4,0.06-3.62c-0.24-0.98-0.37-1.99-0.63-2.96c-0.26-0.97-0.61-1.92-0.97-2.86
			c-0.33-0.88-0.69-1.75-1.08-2.6c-0.78-1.68-1.59-3.34-2.4-5.01c-0.67-1.39-1.34-2.79-2.03-4.18c-0.46-0.93-0.95-1.83-1.41-2.76
			c-0.9-1.83-1.85-3.65-2.67-5.51c-0.66-1.5-1.19-3.08-1.35-4.72c-0.11-1.14-0.17-2.32-0.01-3.45c0.34-2.32,1.46-4.24,3.4-5.62
			c1.19-0.85,2.47-1.48,3.91-1.86c0.76-0.2,1.51-0.27,2.26-0.42c1.39-0.27,2.82-0.21,4.2-0.43c1.52-0.25,3.05-0.2,4.55-0.43
			c1.54-0.24,3.1-0.22,4.63-0.42c1.17-0.15,2.34-0.2,3.5-0.36c0.45-0.06,0.52-0.24,0.22-0.59c-1.08-1.24-2.18-2.46-3.27-3.7
			c-1.76-2.02-3.53-4.03-5.26-6.06c-1.14-1.34-2.25-2.71-3.35-4.07c-0.14-0.17-0.21-0.41-0.31-0.61L170.6,118.51z"/>
		<path d="M150.88,215.41c0.07-1.37,0.75-2.3,1.87-2.93c0.59-0.33,1.24-0.55,1.87-0.79c1.67-0.62,3.35-1.21,5.01-1.84
			c1.62-0.62,3.21-1.29,4.83-1.9c0.65-0.25,1.34-0.46,2.03-0.55c2.09-0.27,3.74,1.89,3.06,3.93c-0.29,0.87-0.96,1.43-1.79,1.78
			c-0.73,0.31-1.48,0.57-2.22,0.86c-1.39,0.54-2.79,1.08-4.18,1.62c-0.52,0.2-1.06,0.38-1.59,0.57c-0.04,0.02-0.09,0.02-0.14,0.03
			c-0.82,0.28-0.94,0.47-0.67,1.3c0.19,0.6,0.42,1.19,0.68,1.76c0.21,0.44,0.28,0.43,0.7,0.27c1.03-0.39,2.06-0.76,3.08-1.16
			c0.89-0.35,1.77-0.73,2.67-1.07c0.83-0.31,1.67-0.63,2.53-0.85c1.31-0.34,2.93,0.64,3.22,1.86c0.07,0.32,0.25,0.62,0.25,0.94
			c0.02,1.13-0.5,1.99-1.48,2.51c-0.68,0.36-1.41,0.61-2.13,0.89c-0.89,0.35-1.79,0.69-2.69,1.03c-0.63,0.24-1.27,0.46-1.91,0.7
			c-0.5,0.19-1.02,0.36-1.49,0.6c-0.5,0.25-0.52,0.31-0.35,0.83c0.2,0.6,0.44,1.18,0.66,1.77c0.15,0.39,0.29,0.79,0.45,1.17
			c0.13,0.32,0.31,0.37,0.67,0.22c0.95-0.4,1.93-0.73,2.89-1.09c0.9-0.34,1.79-0.69,2.68-1.03c0.52-0.2,1.05-0.4,1.58-0.6
			c0.68-0.25,1.36-0.52,2.06-0.72c1.13-0.32,2.57,0.03,3.2,1.16c0.26,0.47,0.45,0.97,0.65,1.47c0.06,0.14,0.07,0.34,0.02,0.49
			c-0.14,0.44-0.3,0.88-0.5,1.3c-0.41,0.85-1.22,1.2-2.02,1.53c-1.06,0.44-2.13,0.84-3.2,1.25c-0.92,0.34-1.85,0.65-2.77,1
			c-0.9,0.34-1.78,0.72-2.67,1.05c-0.68,0.25-1.37,0.46-2.06,0.69c-0.73,0.24-1.46,0.49-2.2,0.71c-0.26,0.08-0.56,0.12-0.83,0.08
			c-1.26-0.18-2.26-0.79-2.82-1.95c-0.37-0.76-0.61-1.57-0.91-2.36c-0.3-0.79-0.6-1.58-0.9-2.37c-0.38-1.01-0.77-2.02-1.15-3.02
			c-0.52-1.36-1.05-2.72-1.56-4.08c-0.49-1.29-0.97-2.59-1.45-3.89c-0.18-0.48-0.37-0.97-0.51-1.46
			C151.14,216.55,151.02,215.98,150.88,215.41z"/>
		<path d="M138.44,241.14c-0.76-0.05-1.7-0.02-2.59-0.19c-2.77-0.55-4.81-2.05-5.99-4.7c-0.7-1.57-1.11-3.17-1.28-4.87
			c-0.18-1.75-0.5-3.49-0.72-5.24c-0.2-1.56-0.33-3.13-0.54-4.69c-0.09-0.7-0.33-1.37-0.26-2.09c0.12-1.12,0.51-2.08,1.48-2.76
			c1.13-0.79,2.67-0.83,3.85-0.12c0.99,0.59,1.42,1.54,1.65,2.58c0.19,0.86,0.26,1.76,0.37,2.64c0.04,0.33,0.05,0.66,0.09,0.98
			c0.11,0.81,0.24,1.62,0.34,2.43c0.06,0.47,0,0.96,0.13,1.4c0.19,0.62,0.21,1.24,0.29,1.87c0.16,1.21,0.29,2.42,0.52,3.62
			c0.16,0.85,0.43,1.69,1,2.36c0.24,0.29,0.62,0.57,0.98,0.65c1.56,0.33,3.09,0.22,4.46-0.7c0.57-0.38,0.88-0.97,0.98-1.66
			c0.21-1.49,0.08-2.96-0.21-4.42c-0.07-0.37-0.09-0.75-0.13-1.12c-0.18-1.56-0.33-3.13-0.54-4.69c-0.18-1.4-0.47-2.78-0.62-4.18
			c-0.2-1.96,0.86-4.05,3.31-4.1c1.21-0.03,2.23,0.35,2.94,1.32c0.38,0.52,0.65,1.12,0.71,1.81c0.06,0.74,0.23,1.48,0.32,2.22
			c0.07,0.56,0.1,1.12,0.16,1.69c0.16,1.47,0.33,2.93,0.51,4.4c0.08,0.65,0.21,1.29,0.3,1.93c0.06,0.42,0.08,0.84,0.11,1.26
			c0.01,0.14-0.01,0.3,0.04,0.42c0.38,0.96,0.27,1.96,0.22,2.93c-0.08,1.35-0.35,2.66-1,3.9c-0.51,0.98-1.13,1.82-1.96,2.53
			c-0.88,0.75-1.85,1.33-2.95,1.69c-1.05,0.35-2.1,0.65-3.2,0.76C140.34,241.08,139.46,241.09,138.44,241.14z"/>
		<path d="M186.13,223.65c-0.87-0.09-1.76-0.07-2.59-0.29c-1.59-0.42-3.05-1.16-4.4-2.13c-2.16-1.55-3.72-3.59-4.84-5.95
			c-0.56-1.17-1.07-2.41-1.16-3.75c-0.05-0.7-0.24-1.39-0.25-2.09c0-1.59,0.4-3.1,0.99-4.58c1.08-2.73,3.11-4.54,5.56-5.95
			c0.88-0.51,1.87-0.82,2.88-1.08c1.42-0.37,2.85-0.46,4.26-0.23c2.05,0.33,3.95,1.06,5.16,2.9c0.51,0.78,0.75,1.62,0.43,2.65
			c-0.33,1.06-1,1.69-1.91,2.1c-0.77,0.35-1.62,0.29-2.41-0.02c-0.59-0.23-1.13-0.58-1.71-0.82c-0.63-0.25-1.28-0.55-1.93-0.59
			c-0.6-0.03-1.27,0.16-1.82,0.44c-0.85,0.44-1.59,1.06-2.11,1.91c-0.74,1.2-0.84,2.43-0.45,3.76c0.25,0.89,0.58,1.73,1.03,2.52
			c0.88,1.56,1.96,2.94,3.41,4.04c1.42,1.07,3.85,0.96,5.02,0.02c0.55-0.44,1.11-0.84,1.53-1.43c0.68-0.96,0.67-2.03,0.57-3.12
			c-0.05-0.54-0.15-1.07-0.28-1.6c-0.38-1.51,0.69-3.39,2.44-3.55c0.58-0.05,1.17,0.02,1.76,0.08c0.59,0.06,1.03,0.43,1.39,0.88
			c0.83,1.07,1.29,2.28,1.3,3.63c0.01,1.06,0.03,2.13-0.12,3.17c-0.17,1.18-0.67,2.27-1.33,3.28c-0.67,1.02-1.43,1.97-2.44,2.67
			c-0.84,0.59-1.69,1.18-2.59,1.66c-0.84,0.45-1.73,0.84-2.65,1.11c-0.73,0.21-1.53,0.2-2.3,0.28c-0.14,0.01-0.28,0-0.42,0
			C186.13,223.6,186.13,223.63,186.13,223.65z"/>
		<path d="M94.12,237.68c-1.2,0.05-2.57-0.34-3.95-0.76c-1.44-0.44-2.72-1.15-3.93-1.98c-1.17-0.81-2.04-1.93-2.72-3.18
			c-0.52-0.96-0.92-1.98-1.1-3.03c-0.21-1.17-0.21-2.39-0.27-3.58c-0.02-0.44,0.06-0.89,0.08-1.34c0.06-1.04,0.38-2.03,0.69-3.01
			c0.35-1.13,0.81-2.2,1.4-3.22c1.21-2.1,2.83-3.82,4.99-4.92c1.2-0.61,2.5-1.09,3.9-1.07c1.27,0.02,2.55-0.03,3.8,0.14
			c1.03,0.14,2.04,0.48,2.98,0.99c0.86,0.47,1.77,0.86,2.51,1.52c0.95,0.84,1.84,1.73,2.5,2.83c0.73,1.23,1.26,2.51,1.24,3.96
			c-0.01,0.38-0.03,0.75-0.02,1.13c0.07,1.87-2.12,3.45-3.87,2.95c-1.17-0.33-2.17-0.97-2.44-2.52c-0.18-1.02-0.39-2.03-0.93-2.93
			c-0.59-0.98-1.46-1.57-2.56-1.82c-0.68-0.15-1.35-0.26-2.08-0.13c-1.16,0.2-2.04,0.78-2.78,1.63c-0.8,0.93-1.37,1.98-1.78,3.15
			c-0.49,1.41-0.86,2.82-0.82,4.32c0.02,0.75,0.1,1.49,0.46,2.18c0.44,0.83,1.04,1.51,1.89,1.89c0.68,0.31,1.4,0.52,2.12,0.7
			c0.32,0.08,0.7,0.02,1.04-0.05c1.38-0.3,2.37-1.16,3.19-2.26c0.51-0.68,1.1-1.27,1.95-1.56c0.52-0.17,0.99-0.18,1.51-0.01
			c0.63,0.2,1.22,0.45,1.68,0.97c0.87,0.97,1.08,2.09,0.65,3.27c-0.64,1.74-1.84,3.04-3.39,4.08
			C98.34,237.19,96.45,237.7,94.12,237.68z"/>
		<path d="M71.85,201.89c0,0.94-0.1,1.69-0.35,2.44c-0.3,0.88-0.41,1.82-0.63,2.73c-0.2,0.81-0.43,1.62-0.64,2.43
			c-0.06,0.25-0.07,0.51-0.13,0.76c-0.24,0.95-0.51,1.89-0.73,2.85c-0.2,0.84-0.34,1.7-0.54,2.54c-0.23,0.97-0.5,1.94-0.74,2.91
			c-0.18,0.73-0.32,1.46-0.49,2.19c-0.21,0.88-0.45,1.75-0.8,2.6c-0.54,1.3-2.15,2.04-3.41,1.87c-2.11-0.29-3.41-2.04-2.84-4.38
			c0.24-0.98,0.44-1.97,0.7-2.94c0.15-0.58-0.05-0.93-0.51-1.25c-1.19-0.83-2.37-1.68-3.55-2.52c-0.53-0.38-1.07-0.75-1.61-1.13
			c-0.43-0.3-0.53-0.28-0.99,0.01c-1.06,0.68-2.14,1.32-3.2,2.01c-1.05,0.68-2.96,0.55-3.96-0.67c-1.1-1.35-1.36-3.71,0.67-5.14
			c1.4-0.99,2.86-1.88,4.3-2.81c0.9-0.59,1.81-1.17,2.71-1.76c2.09-1.37,4.19-2.75,6.28-4.13c1.17-0.77,2.35-1.53,3.53-2.3
			c0.97-0.63,2.04-0.89,3.16-0.69c1.18,0.2,2.18,0.78,2.94,1.75C71.67,200.07,71.97,200.99,71.85,201.89z M60.39,208.9
			c-0.02,0.09-0.04,0.17-0.05,0.26c0.16,0.1,0.31,0.2,0.47,0.31c0.46,0.32,0.92,0.63,1.37,0.96c0.76,0.54,0.88,0.5,1.17-0.37
			c0.02-0.07,0.04-0.14,0.06-0.2c0.25-0.93,0.49-1.85,0.74-2.78c0.06-0.22,0.18-0.45-0.12-0.67
			C62.72,207.09,61.6,208.06,60.39,208.9z"/>
		<path d="M193.5,188.57c0.07-1.83,0.99-3.13,2.57-3.98c1.15-0.62,2.34-0.57,3.54-0.12c1.36,0.51,2.73,0.98,4.08,1.5
			c1.62,0.62,3.22,1.28,4.83,1.91c0.85,0.33,1.71,0.63,2.57,0.96c1,0.39,1.99,0.81,2.99,1.2c0.94,0.36,1.9,0.67,2.84,1.04
			c1.09,0.42,2.16,0.88,3.03,1.72c0.42,0.41,0.56,0.94,0.65,1.45c0.11,0.61,0.07,1.23-0.18,1.86c-0.29,0.75-0.77,1.28-1.41,1.69
			c-1.06,0.69-2.19,0.55-3.32,0.15c-0.99-0.35-1.98-0.72-2.96-1.11c-0.41-0.16-0.71-0.08-0.99,0.25c-0.52,0.61-1.05,1.2-1.59,1.79
			c-0.93,1.02-1.88,2.03-2.81,3.05c-0.38,0.42-0.35,0.49-0.12,0.98c0.59,1.22,1.23,2.43,1.72,3.69c0.35,0.89,0.19,1.83-0.41,2.61
			c-0.95,1.22-2.2,1.7-3.74,1.38c-0.86-0.18-1.49-0.71-1.94-1.42c-0.46-0.73-0.84-1.52-1.22-2.3c-0.84-1.71-1.67-3.42-2.49-5.14
			c-1.17-2.48-2.32-4.98-3.49-7.46c-0.53-1.13-1.1-2.23-1.6-3.37C193.74,190.16,193.44,189.41,193.5,188.57z M201.96,192.59
			c0.73,1.34,1.27,2.73,2.09,3.94c0.15-0.03,0.21-0.03,0.24-0.05c0.61-0.65,1.22-1.29,1.82-1.95c0.26-0.29,0.2-0.44-0.2-0.62
			c-0.87-0.39-1.73-0.81-2.62-1.15C202.9,192.62,202.49,192.37,201.96,192.59z"/>
		<path d="M39.7,197.47c0.81,0.86,1.58,1.68,2.33,2.5c1.19,1.29,2.38,2.58,3.54,3.9c0.56,0.65,0.93,1.42,0.83,2.31
			c-0.23,2.06-2.29,3.38-4.24,2.53c-0.42-0.18-0.83-0.46-1.15-0.79c-1.18-1.21-2.31-2.46-3.46-3.7c-1.34-1.45-2.68-2.89-4.02-4.34
			c-0.65-0.71-1.23-1.44-1.58-2.38c-0.35-0.96-0.07-1.75,0.34-2.56c0.45-0.88,1.25-1.46,1.95-2.12c1.2-1.12,2.41-2.24,3.61-3.35
			c1.22-1.13,2.45-2.26,3.68-3.38c1.69-1.56,3.38-3.12,5.08-4.66c0.79-0.72,1.7-1.14,2.81-1.09c1.19,0.06,2.02,0.72,2.65,1.63
			c0.34,0.5,0.52,1.08,0.56,1.72c0.07,1.3-0.62,2.24-1.44,3.09c-0.78,0.81-1.62,1.56-2.45,2.31c-1.49,1.35-3,2.68-4.49,4.03
			c-1.42,1.29-2.81,2.61-4.21,3.92C39.93,197.13,39.86,197.25,39.7,197.47z"/>
		<path d="M122.37,241.88c-0.74-0.1-1.48-0.21-2.22-0.31c-0.26-0.03-0.52-0.04-0.77-0.05c-1.32-0.06-2.66,0.03-3.94-0.2
			c-1.52-0.27-3.06-0.1-4.56-0.39c-1.2-0.23-2.28-0.72-2.71-1.96c-0.22-0.65-0.29-1.38-0.28-2.08c0.01-1.25,0.13-2.49,0.22-3.73
			c0.12-1.71,0.26-3.42,0.38-5.14c0.16-2.28,0.31-4.55,0.49-6.83c0.08-1.03,0.13-2.07,0.34-3.08c0.27-1.34,1.01-2.29,2.42-2.74
			c1.75-0.56,3.6,0.59,4.17,1.96c0.13,0.32,0.2,0.68,0.21,1.03c0.01,0.8-0.02,1.6-0.07,2.4c-0.1,1.57-0.24,3.13-0.34,4.7
			c-0.06,0.96,0.01,1.95-0.17,2.89c-0.35,1.89-0.27,3.79-0.4,5.69c-0.01,0.09-0.01,0.19-0.02,0.28c-0.13,0.75-0.06,0.84,0.71,0.88
			c1.32,0.06,2.63,0.11,3.95,0.18c0.39,0.02,0.78,0.13,1.18,0.17c0.56,0.05,1.13,0.1,1.69,0.1c0.74,0.01,1.44,0.1,2.12,0.41
			c0.95,0.43,1.69,1.42,1.71,2.45c0.01,0.68,0.04,1.34-0.39,1.96c-0.55,0.79-1.28,1.22-2.19,1.35c-0.48,0.07-0.99,0.01-1.48,0.01
			C122.38,241.83,122.38,241.85,122.37,241.88z"/>
		<path d="M128.06,161.31c0.32,1.1,0.63,2.19,0.95,3.29c0.42,1.41,0.83,2.82,1.28,4.22c0.33,1.04,0.73,2.07,1.08,3.1
			c0.35,1.02,0.64,2.05,1.01,3.06c0.47,1.27,1,2.51,1.49,3.77c0.34,0.87,0.66,1.75,1.01,2.62c0.34,0.84,0.72,1.67,1.07,2.51
			c0.19,0.45,0.36,0.91,0.56,1.36c0.44,1,0.88,2.01,1.33,3.01c0.62,1.39,1.23,2.78,1.89,4.15c0.62,1.31,1.31,2.58,1.94,3.89
			c0.56,1.15,1.08,2.33,1.56,3.58c-0.42-0.3-0.86-0.58-1.26-0.91c-1.84-1.5-3.54-3.16-5.03-5.01c-1.8-2.24-3.43-4.6-4.76-7.14
			c-0.71-1.35-1.31-2.76-1.88-4.17c-0.57-1.43-1.12-2.89-1.54-4.37c-0.46-1.6-0.75-3.24-1.06-4.88c-0.5-2.7-0.39-5.4-0.34-8.1
			c0.03-1.33,0.32-2.65,0.49-3.97C127.93,161.3,128,161.31,128.06,161.31z"/>
		<path d="M147.26,112.81c-1.1-0.38-2.11-0.8-3.17-1.07c-0.97-0.24-1.93-0.66-2.96-0.49c-0.9,0.15-1.79,0.34-2.66,0.58
			c-0.98,0.27-1.94,0.63-2.92,0.95c-0.16-1.25,1.2-3.59,2.49-4.39c2.31-1.43,4.6-1.37,6.87,0.09
			C146.18,109.3,147.46,111.6,147.26,112.81z"/>
		<path d="M165.18,96.82c0.04-0.12,0.08-0.24,0.12-0.36c0.03,0.01,0.06,0.01,0.1,0.02c-0.03,0.12-0.06,0.25-0.09,0.37
			C165.26,96.85,165.22,96.83,165.18,96.82z"/>
		<path d="M170.62,118.49c-0.12-0.07-0.25-0.13-0.37-0.2c0.28-0.13,0.33,0.03,0.35,0.22C170.6,118.51,170.62,118.49,170.62,118.49z"
			/>
		<path d="M98.84,157.21c-0.07-0.12-0.14-0.25-0.22-0.39C98.95,156.81,98.84,157.04,98.84,157.21
			C98.83,157.22,98.84,157.21,98.84,157.21z"/>
		<path class="st0" d="M60.39,208.9c1.21-0.84,2.33-1.81,3.63-2.5c0.31,0.22,0.18,0.44,0.12,0.67c-0.25,0.93-0.49,1.85-0.74,2.78
			c-0.02,0.07-0.03,0.14-0.06,0.2c-0.29,0.87-0.41,0.91-1.17,0.37c-0.45-0.32-0.91-0.64-1.37-0.96c-0.15-0.11-0.31-0.2-0.47-0.31
			C60.36,209.07,60.37,208.98,60.39,208.9z"/>
		<path class="st0" d="M201.96,192.59c0.53-0.22,0.94,0.03,1.32,0.17c0.89,0.34,1.75,0.75,2.62,1.15c0.4,0.18,0.46,0.33,0.2,0.62
			c-0.59,0.66-1.21,1.3-1.82,1.95c-0.03,0.03-0.09,0.02-0.24,0.05C203.22,195.33,202.69,193.93,201.96,192.59z"/>
	</g>
</g>
</svg>
